/* XPM */
static char *witch3[] = {
/* columns rows colors chars-per-pixel */
"48 48 13 1 ",
"  c #292333",
". c #3B324A",
"X c #334652",
"o c #377172",
"O c #405162",
"+ c #9E907F",
"@ c #3D7F80",
"# c #4FA4A5",
"$ c #A2A29A",
"% c #BFBFB6",
"& c #E6D1B8",
"* c #D9D9CE",
"= c None",
/* pixels */
"================================================",
"================================================",
"===================#============================",
"==================##o===========================",
"===================o============================",
"==============================##================",
"=============================###o===============",
"=============================##oo===============",
"==============================oo================",
"================================================",
"=======##==============O========================",
"======###o=============OO=======================",
"======##oo============OOO=======================",
"=======oo=============OOO=======================",
"=====================OO.O=======================",
"=====================...OX======================",
"=====================....X======================",
"====================.....X======================",
"===================@..... @=====================",
"==================XXo....# XXXX=================",
"================XXXX ####   XXOO================",
"==============XXXXX          OOOO=====###=======",
"=============OOXX         ...OOOO====####o======",
"=============OO.............OOOO=====####o======",
"===============O............@@@@=====###oo======",
"===============@oo....$ +$ o@###======ooo=======",
"=====#=========##ooooo&&&&&####=================",
"====##o========O..#####.  ###XXX================",
"=====o========OO........      XXXX==============",
"=============OOO........      XXXXX=============",
"=============OO..........      XXXX=============",
"=============OO..........        XX=============",
"=============O...........          =============",
"==============...........         %=============",
"================.........      %%%%%============",
"==================##.....  oo=%****%%===========",
"==================######ooooo=******%===========",
"==================######ooooo=******%===========",
"===============**=######ooooo*******============",
"===========*====***=###=oooo=*******============",
"===========***=*****..===  ==**==**=============",
"============********..===  =====**==============",
"============********============*===============",
"=============********===========================",
"==============*******===========================",
"===============******===========================",
"================****============================",
"================================================"
};
