/* XPM */
static char *witch4[] = {
/* columns rows colors chars-per-pixel */
"48 48 13 1 ",
"  c #292333",
". c #3B324A",
"X c #334652",
"o c #377172",
"O c #405162",
"+ c #9E907F",
"@ c #3D7F80",
"# c #4FA4A5",
"$ c #A2A29A",
"% c #BFBFB6",
"& c #E6D1B8",
"* c #D9D9CE",
"= c None",
/* pixels */
"================================================",
"==================##============================",
"=================###o===========================",
"=================##oo===========================",
"==================oo==========###===============",
"=============================####o==============",
"=============================####o==============",
"=============================###oo==============",
"==============================ooo===============",
"================================================",
"=======###======================================",
"======####o=====================================",
"======####o===============O=====================",
"======###oo=============OOO=====================",
"=======ooo=============OOOO=====================",
"======================OOO. =====================",
"======================OO. ======================",
"=====================OO.. ======================",
"===================@OO... @XXX==================",
"=================XXXoo...o  XXXO================",
"==============XXXXXX ####     ..O===============",
"=============OXXXX           ...O=====##========",
"=============OOOX         .....O=====#==========",
"==============OOO..............======#===o======",
"================OO..........oo@==========o======",
"================@oO...$ +$ oo##=========o=======",
"=====##=========#ooooo&&&&&###==================",
"====###o=========######   ##====================",
"====##oo==========OO....    ====================",
"=====oo========OOOOO....       =================",
"==============OOOOO.....       XX===============",
"=============OOOO........        X==============",
"=============OOO.........         ==============",
"=============OO..........         ==============",
"=============%...........        %==============",
"============%%%..........       %===============",
"============%%%%%...####oo    ==================",
"============*%%%==######oooo====================",
"=============**===######****o===================",
"=============**=====#*********==================",
"==============*=====.**********=================",
"====================..***********===============",
"================*======**********===============",
"===============***=====**********===============",
"================***==***********================",
"====================*********===================",
"================================================",
"================================================"
};
