/* XPM */
static char *witch2[] = {
/* columns rows colors chars-per-pixel */
"48 48 14 1 ",
"  c #292333",
". c #3B324A",
"X c #334652",
"o c #377172",
"O c #405162",
"+ c #9E907F",
"@ c #3D7F80",
"# c #4FA4A5",
"$ c #A2A29A",
"% c #A1B8B2",
"& c #BFBFB6",
"* c #E6D1B8",
"= c #D9D9CE",
"- c None",
/* pixels */
"------------------------------------------------",
"------------------------------------------------",
"------------------------------------------------",
"-------------------#----------------------------",
"------------------------------------------------",
"------------------------------------------------",
"------------------------------#-----------------",
"-----------------------------##o----------------",
"------------------------------o-----------------",
"----------------------O-------------------------",
"--------#-------------O-------------------------",
"-------##o------------.O------------------------",
"--------o------------..O------------------------",
"---------------------...O-----------------------",
"---------------------...O-----------------------",
"---------------------O...-----------------------",
"--------------------O....-----------------------",
"--------------------.....O----------------------",
"-------------------o......o   ------------------",
"------------------X oo...#     XO---------------",
"---------------XXX    ###     .OO---------------",
"-------------OO            ...OOO---------------",
"-------------...        ......OO-------##-------",
"--------------...............O@-------###o------",
"---------------........... ooo@-------##oo------",
"----------------@oo..o$ +$ ####--------oo-------",
"----------------##oooo*****###------------------",
"-----#-----------######   ####------------------",
"-------------------.....    --------------------",
"-----------------.......    XX------------------",
"---------------O........     XX&&---------------",
"--------------O..........     XXX&&-------------",
"-------------O...........      XX%&=------------",
"-------------............       XX&=------------",
"-------------............        X=-------------",
"-------------............         --------------",
"------------=.......####oo       ---------------",
"------------==....######oooo ==  ---------------",
"-----------===&..&######ooo=======--------------",
"-----------===&&&---###-oo=========-------------",
"-----------===&&&---..---============-----------",
"------------===&----..---============-----------",
"------------====------------=========-----------",
"-------------====------------=======------------",
"---------------==----------=======--------------",
"-------------------------=====------------------",
"------------------------------------------------",
"------------------------------------------------"
};
