/* XPM */
static char *f2[] = {
/* columns rows colors chars-per-pixel */
"60 60 98 2 ",
"   c #AE4727",
".  c #AF4827",
"X  c #AE4728",
"o  c #AF4828",
"O  c #B14B27",
"+  c #B24D28",
"@  c #B55426",
"#  c #B95A26",
"$  c #B65128",
"%  c #BA5529",
"&  c #BD5A2A",
"*  c #BD6127",
"=  c #BE622A",
"-  c #C15E2A",
";  c #C06426",
":  c #C46B26",
">  c #C4632A",
",  c #C8672C",
"<  c #C36B2C",
"1  c #CC6C2C",
"2  c #C77125",
"3  c #CB7725",
"4  c #CC7B23",
"5  c #CE712C",
"6  c #D07B27",
"7  c #D1732D",
"8  c #D37C2B",
"9  c #C47534",
"0  c #C97732",
"q  c #CA7B32",
"w  c #D37C30",
"e  c #E3A61F",
"r  c #E5A81F",
"t  c #E8AF1F",
"y  c #EBB41E",
"u  c #ECB81F",
"i  c #D38425",
"p  c #D48A22",
"a  c #D98A27",
"s  c #D5812A",
"d  c #D88628",
"f  c #D7882C",
"g  c #D98A29",
"h  c #D69126",
"j  c #DC9324",
"k  c #DE9A24",
"l  c #DD932A",
"z  c #D58233",
"x  c #D88732",
"c  c #DA8B35",
"v  c #DA9D33",
"b  c #E19C23",
"n  c #E09A2B",
"m  c #E19C32",
"M  c #E09D3B",
"N  c #DFA735",
"B  c #E3A322",
"V  c #E7AA20",
"C  c #E9AE22",
"Z  c #E4A228",
"A  c #ECB621",
"S  c #EDBA23",
"D  c #EAB22C",
"F  c #EEBE2A",
"G  c #E5A632",
"H  c #E5AC31",
"J  c #E8AE36",
"K  c #E3A33C",
"L  c #E6AB3F",
"P  c #E6B63F",
"I  c #E9B239",
"U  c #EFC027",
"Y  c #F0C32D",
"T  c #F1C532",
"R  c #F2CB34",
"E  c #F0C53B",
"W  c #F3CC3C",
"Q  c #F5D037",
"!  c #F6D43C",
"~  c #E3AC40",
"^  c #E5B443",
"/  c #E9B543",
"(  c #E7BB47",
")  c #ECBD45",
"_  c #F3CD4A",
"`  c #F6D541",
"'  c #F7D942",
"]  c #F8DB44",
"[  c #F5D44C",
"{  c #F7D94E",
"}  c #F9DE4A",
"|  c #F8DE50",
" . c #FAE147",
".. c #FBE34C",
"X. c #FBE551",
"o. c #FEEC55",
"O. c #FEF156",
"+. c None",
/* pixels */
"+.+.+.+.+.+.+.+.+.+.+.+.+.+.+.+.+.+.+.+.+.+.+.+.+.+.+.+.+.+.+.+.+.+.+.+.+.+.+.+.+.+.+.+.+.+.+.+.+.+.+.+.+.+.+.+.+.+.+.+.",
"+.+.+.+.+.+.+.+.+.+.+.+.+.+.+.+.+.+.+.+.+.+.+.+.+.+.+.+.+.+.+.+.+.+.+.+.+.+.+.+.+.+.+.+.+.+.+.+.+.+.+.+.+.+.+.+.+.+.+.+.",
"+.+.+.+.+.+.+.+.+.+.+.+.+.+.+.+.+.+.+.+.+.+.+.+.+.+.+.+.+.+.+.+.+.+.+.+.+.+.+.+.+.+.+.+.+.+.+.+.+.+.+.+.+.+.+.+.+.+.+.+.",
"+.+.+.+.+.+.+.+.+.+.+.+.+.+.+.+.+.+.+.+.+.+.+.+.+.+.+.+.+.+.+.+.+.+.+.+.+.+.+.+.+.+.+.+.+.+.+.+.+.+.+.+.+.+.+.+.+.+.+.+.",
"+.+.+.+.+.+.+.+.+.+.+.+.+.+.+.+.+.+.+.+.+.+.+.+.+.+.+.+.+.+.+.+.+.+.+.+.+.+.+.+.+.+.+.+.+.+.+.+.+.+.+.+.+.+.+.+.+.+.+.+.",
"+.+.+.+.+.+.+.+.+.+.+.+.+.+.+.+.+.+.+.+.+.+.+.+.+.+.+.+.+.+.+.+.+.+.+ o +.+.+.+.+.+.+.+.+.+.+.+.+.+.+.+.+.+.+.+.+.+.+.+.",
"+.+.+.+.+.+.+.+.+.+.+.+.+.+.+.+.+.+.+.+.+.+.+.+.+.+.+.+.+.+.+.+.+.+.o + +.+.+.+.+.+.+.+.+.+.+.+.+.+.+.+.+.+.+.+.+.+.+.+.",
"+.+.+.+.+.+.+.+.+.+.+.+.+.+.+.+.+.+.+.+.+.+.+.+.+.+.+.+.+.+.+.+.+.+.+.+.+.+.+.+.+.+.+.+.+.+.+.+.+.+.+.+.+.+.+.+.+.+.+.+.",
"+.+.+.+.+.+.+.+.+.+.+.+.+.+.+.+.+.+.+.+.+.+.+.+.+.+.+.+.+.+.+.+.+.+.+.+.+.+.+.+.+.+.+.+.+.+.+.+.+.+.+.+.+.+.+.+.+.+.+.+.",
"+.+.+.+.+.+.+.+.+.+.+.+.+.+.+.+.+.+.+.+.+.+.+.+.+.+.+.+.+.+.+.+.+.+.+.+.+.+.+.+.+.+.+.+.+.+.+.+.+.+.+.+.+.+.+.+.+.+.+.+.",
"+.+.+.+.+.+.+.+.+.+.+.+.+.+.+.+.+.+.+.+.+.+.+.+.+.+.+.+.+.+.+.+.+.+.+.+.+.+.+.+.+.+.+.+.+.+.+.+.+.+.+.+.+.+.+.+.+.+.+.+.",
"+.+.+.+.+.+.+.+.+.+.+.+.+.+.+.+.+.+.+.+.+.+.+.+.+.+.+.+.+.+.+.+.+.+.+.+.+.+.+.+.+.+.+.+.+.+.+.+.+.+.+.+.+.+.+.+.+.+.+.+.",
"+.+.+.+.+.+.+.+.+.+.+.+.+.+.+.+.+.+.+.+.+.+.    . . +.+.+.. . +.+.+.+.+.+.+.+.+.+.+.+.+.+.+.+.+.+.+.+.+.+.+.+.+.+.+.+.+.",
"+.+.+.+.+.+.+.+.+.+.+.+.+.+.+.+.+.+.+.+.+.+.      O +.+.+.$ + +.+.+.+.+.+.+.+.+.+.+.+.+.+.+.+.+.+.+.+.+.+.+.+.+.+.+.+.+.",
"+.+.+.+.+.+.+.+.+.+.+.+.+.+.+.+.+.+.+.+.+.+.      +.+.1 , > > +.+.+.+.+.+.+.+.+.+.+.+.+.+.+.+.+.+.+.+.+.+.+.+.+.+.+.+.+.",
"+.+.+.+.+.+.+.+.+.+.+.+.+.+.+.+.+.+.+.+.+.+.    +.+.+.1 1 1 1 +.+.+.+.+.+.+.+.+.+.+.+.+.+.+.+.+.+.+.+.+.+.+.+.+.+.+.+.+.",
"+.+.+.+.+.+.+.+.+.+.+.+.+.+.+.+.+.+.+.+.+.+.  +.+.+.> > , 1 7 +.+.+.+.+.+.+.+.+.+.+.+.+.+.+.+.+.+.+.+.+.+.+.+.+.+.+.+.+.",
"+.+.+.+.+.+.+.+.+.+.+.+.+.+.+.+.+.+.+.+.+.+.+.+.+.+.+ % - , 7 +.+.+.+.+.+.+.+.+.+.+.+.+.+.+.+.+.+.+.+.+.+.+.+.+.+.+.+.+.",
"+.+.+.+.+.+.+.+.+.+.+.+.+.+.+.+.+.+.+.+.+.+.+.+.+.+.  O % , 7 +.+.+.+.+.+.+.+.+.+.+.+.+.+.+.+.+.+.+.+.+.+.+.+.+.+.+.+.+.",
"+.+.+.+.+.+.+.+.+.+.+.+.+.+.+.+.+.+.+.+.+.+.+.+.+.+.  . + > +.+.+.+.+.+.+.+.+.+.+.+.+.+.+.+.+.+.+.+.+.+.+.+.+.+.+.+.+.+.",
"+.+.+.+.+.+.+.+.+.+.+.+.+.+.+.+.+.+.+.+.+.+.+.+.+.+.+.. . +.+.+.+.+.+.+.+.+.+.+.+.+.+.+.+.+.+.+.+.+.+.+.+.+.+.+.+.+.+.+.",
"+.+.+.+.+.+.+.+.+.+.+.+.+.+.+.+.+.+.+.+.+.+.+.+.+.+.+.+.+.+.+.+.+.+.+.+.+.+.+.+.+.+.+.+.+.+.+.+.+.+.+.+.+.+.+.+.+.+.+.+.",
"+.+.+.+.+.+.+.+.+.+.+.+.+.+.+.+.+.+.+.+.+.+.+.+.+.+.+.+.+.+.+.+.+.+.+.+.+.+.+.+.+.+.+.+.+.+.+.+.+.+.+.+.+.+.+.+.+.+.+.+.",
"+.+.+.+.+.+.+.+.+.+.+.+.+.+.+.+.+.+.+.+.+.+.+.+.+.+.+.+.+.+.+.+.+.+.+.+.+.+.+.+.+.+.+.+.+.+.+.+.+.+.+.+.+.+.+.+.+.+.+.+.",
"+.+.+.+.+.+.+.+.+.+.+.+.+.+.+.+.+.+.+.+.+.+.+.+.+.+.+.+.+.+.+.+.+.+.+.+.+.+.+.+.+.+.+.+.+.+.+.+.+.+.+.+.+.+.+.+.+.+.+.+.",
"+.+.+.+.+.+.+.+.+.+.+.+.+.+.+.+.+.+.+.+.+.+.+.+.+.+.+.+.+.+.+.+.+.+.+.+.+.+.+.+.+.+.+.+.+.+.+.+.+.+.+.+.+.+.+.+.+.+.+.+.",
"+.+.+.+.+.+.+.+.+.+.+.+.+.+.+.+.+.+.+.+.+.+.+.+.+.+.+.+.+.+.+.+.+.+.+.+.+.+.+.+.+.+.+.+.+.+.+.+.+.+.+.+.+.+.+.+.+.+.+.+.",
"+.+.+.+.+.+.+.+.+.+.+.+.+.+.+.+.+.+.+.+.+.+.+.+.+.+.+.+.+.+.+.+.+.+.+.+.+.+.+.+.+.7 7 +.+.+.+.+.+.+.+.+.+.+.+.+.+.+.+.+.",
"+.+.+.+.+.+.+.+.+.+.+.+.+.+.+.+.+.+.+.+.+.+.+.+.+.+.+.+.+.+.+.+.+.+.+.+.+.+.+.+.+.7 7 +.+.+.+.+.+.+.+.+.+.+.+.+.+.+.+.+.",
"+.+.+.+.+.+.+.+.+.+.+.+.+.+.+.+.+.+.+.+.+.+.        o . +.+.+.+.+.+.+.+.+.+.+.+.+.7 7 +.+.+.+.+.+.+.+.+.+.+.+.+.+.+.+.+.",
"+.+.+.+.+.+.+.+.+.+.+.+.+.+.+.+.+.+.+.+.+.. O       .     +.+.+.+.+.+.+.+.+.+.+.+.7 7 +.+.+.+.+.+.+.+.+.+.+.+.+.+.+.+.+.",
"+.+.+.+.+.+.+.+.+.+.+.+.+.+.+.+.+.+.+.+..     O   .     .   +.+.+.+.+.+.+.+.+.+.+.+.+.+.+.+.+.+.+.+.+.+.+.+.+.+.+.+.+.+.",
"+.+.+.+.+.+.+.+.+.+.+.+.+.+.+.+.+.+.+.# @ @ @ @ O + O   O O + +.+.+.+.+.+.+.+.+.+.+.+.+.+.+.+.+.+.+.+.+.+.+.+.+.+.+.+.+.",
"+.+.+.+.+.+.+.+.+.+.+.+.+.+.+.+.+.+.5 4 4 4 4 2 ; # + O + % - , +.+.+.+.+.+.+.+.+.+.+.+.+.+.+.+.+.+.+.+.+.+.+.+.+.+.+.+.",
"+.+.+.+.+.+.+.+.+.+.+.+.+.+.+.+.+.7 8 j b e B j i , % + % > 1 7 7 7 7 8 +.+.+.+.+.+.+.+.+.+.+.+.+.+.+.+.+.+.+.+.+.+.+.+.",
"+.+.+.+.+.+.+.+.+.+.+.+.+.+.+.+.+.7 8 j t u t e j 6 > + % , 7 s d a d s +.+.+.+.+.+.+.+.+.+.+.+.+.+.+.+.+.+.+.+.+.+.+.+.",
"+.+.+.+.+.+.+.+.+.+.+.+.+.+.+.+.+.7 s b y u y y V j : $ % , 8 j B B b b 8 7 +.+.+.+.+.+.+.+.+.+.+.+.+.+.+.+.+.+.+.+.+.+.",
"+.+.+.+.+.+.+.+.+.+.+.+.+.+.+.+.+., 6 b y y y A A B 3 # # 5 a b C y A b d 7 , +.+.+.+.+.+.+.+.+.+.+.+.+.+.+.+.+.+.+.+.+.",
"+.+.+.+.+.+.+.+.+.+.+.+.+.+.+.+.+.& : j t y y y y V i < 2 a b V y u y B d 1 - + +.+.+.+.+.+.+.+.+.+.+.+.+.+.+.+.+.+.+.+.",
"+.+.+.+.+.+.+.+.+.+.+.+.+.+.+.+.+.+ * p r A S A A C l s g Z C A A S A B d , & O o +.+.+.+.+.+.+.+.+.+.+.+.+.+.+.+.+.+.+.",
"+.+.+.+.+.+.+.+.+.+.+.+.+.+.+.+.+.  # 3 b D T R R T I K G C S Y R R R H 8 ; @ .   +.+.+.+.+.+.+.+.+.+.+.+.+.+.+.+.+.+.+.",
"+.+.+.+.+.+.+.+.+.+.+.+.+.+.+.+.+.o $ : f J `  .} } { _ E S F Q ] .. .P q @ . . O +.+.+.+.+.+.+.+.+.+.+.+.+.+.+.+.+.+.+.",
"+.+.+.+.+.+.+.+.+.+.+.+.+.+.+.+.+.o % - w L { o.o.o.o.X.] R R ] X.O.X.( 9 $ @ # ; +.+.+.+.+.+.+.+.+.+.+.+.+.+.+.+.+.+.+.",
"+.+.+.+.+.+.+.+.+.+.+.+.+.+.+.+.+.o + - w L { o.o.o.o.o...] ] ..O.O.X.( 9 @ ; i i 8 , % O +.+.+.+.+.+.+.+.+.+.+.+.+.+.+.",
"+.+.+.+.+.+.+.+.+.+.+.+.+.+.+.+.+.+ % - w L [ X.o.o.o.o.X.......o.O...P 9 # 4 B b d 7 # $ +.+.+.+.+.+.+.+.+.+.+.+.+.+.+.",
"+.+.+.+.+.+.+.+.+.+.+.+.+.+.+.+.> - - , 7 Z E ' ..o.o.o...' ' ..X...! N < # 4 r V b d : - & +.+.+.+.+.+.+.+.+.+.+.+.+.+.",
"+.+.+.+.+.+.+.+.+.+.+.+.+.+.+.5 1 1 1 1 8 l D R ] X.o.o.! R R ' X.! Y k ; # 6 B A V b s 1 , +.+.+.+.+.+.+.+.+.+.+.+.+.+.",
"+.+.+.+.+.+.+.+.+.+.+.+.+.+.7 7 7 7 7 7 7 d b D W ' } ' R S F R ! R S h 2 ; 4 b V t V g 7 1 +.+.+.+.+.+.+.+.+.+.+.+.+.+.",
"+.+.+.+.+.+.+.+.+.+.+.+.+.+.7 7 7 7 7 7 7 8 d n D Y R Y F u S F Y U A k 4 1 5 i b C B a 7 7 +.+.+.+.+.+.+.+.+.+.+.+.+.+.",
"+.+.+.+.+.+.+.+.+.+.+.+.+.+.7 7 7 7 w w z c c m D F F u y y y u u u y B s 5 5 8 a b b a 7 7 +.+.+.+.+.+.+.+.+.+.+.+.+.+.",
"+.+.+.+.+.+.+.+.+.+.+.+.+.+.7 7 7 7 w M ^ / / ) W W Y A y y y y u y y B f 7 5 7 8 g g s 7 5 +.+.+.+.+.+.+.+.+.+.+.+.+.+.",
"+.+.+.+.+.+.+.+.+.+.+.+.+.+.7 7 1 7 c / { | | | X. .R U A A S u u u y B g w w w w 8 8 7 7 7 +.+.+.+.+.+.+.+.+.+.+.+.+.+.",
"+.+.+.+.+.+.+.+.+.+.+.+.+.+.7 0 1 7 c ) X.O.o.o.o...' R R R Y F y y y D G M K M c w 7 7 7 7 +.+.+.+.+.+.+.+.+.+.+.+.+.+.",
"+.+.+.+.+.+.+.+.+.+.+.+.+.+.7 7 1 7 c _ X.O.o.o.o.o.....} } ' Y A y A F _ _ _ _ ~ z 7 1 5 5 +.+.+.+.+.+.+.+.+.+.+.+.+.+.",
"+.+.+.+.+.+.+.+.+.+.+.+.+.+.7 7 7 7 c ) X.O.o.o.o.o.o.o.o.o.X.W Y F Y R { X.O.X.( z , , , , +.+.+.+.+.+.+.+.+.+.+.+.+.+.",
"+.+.+.+.+.+.+.+.+.+.+.+.+.+.7 5 1 7 c ) X.O.o.o.o.o.o.o.o.o.X.} ' ! ! } X.o.O.X.^ 0 % % % & +.+.+.+.+.+.+.+.+.+.+.+.+.+.",
"+.+.+.+.+.+.+.+.+.+.+.+.+.+.1 1 1 1 c ) ..o.o.O.o.o.o.o.o.o.o.o.o...o...o.o.o.} ~ = + o . + +.+.+.+.+.+.+.+.+.+.+.+.+.+.",
"+.+.+.+.+.+.+.+.+.+.+.+.+.+.& > , 1 x L W } X.o.o.o.O.o.o.o.o.o.o.o.o.o.o.X. .Q v = X X . . +.+.+.+.+.+.+.+.+.+.+.+.+.+.",
"+.+.+.+.+.+.+.+.+.+.+.+.+.+.+ $ - 1 8 Z F ` ..o.o.O.o.o.o.o.o.o.o.o.o.o.o.o.! F h * X X . . +.+.+.+.+.+.+.+.+.+.+.+.+.+.",
"+.+.+.+.+.+.+.+.+.+.+.+.+.+.  O % 1 8 b S Q ..o.o.o.O.O.o.o.O.o.O.O.o.o.o...Q D p # X X . . +.+.+.+.+.+.+.+.+.+.+.+.+.+."
};
