/* XPM */
static char *f3[] = {
/* columns rows colors chars-per-pixel */
"60 60 92 1 ",
"  c #AE4627",
". c #AF4927",
"X c #AC4328",
"o c #AF4828",
"O c #B14D27",
"+ c #B24C28",
"@ c #B65527",
"# c #BB5D26",
"$ c #B65129",
"% c #BA552A",
"& c #BD5A2A",
"* c #BF6525",
"= c #C15E2A",
"- c #C46B25",
"; c #C5642C",
": c #C8672C",
"> c #C66C28",
", c #CC6D2D",
"< c #C87325",
"1 c #CD7E24",
"2 c #CE712C",
"3 c #D17D27",
"4 c #D1732E",
"5 c #D37A2C",
"6 c #D27731",
"7 c #D47C31",
"8 c #E6AB1F",
"9 c #E8AC1E",
"0 c #ECB51E",
"q c #EEB91E",
"w c #F0BD1D",
"e c #CF8223",
"r c #D28324",
"t c #D98727",
"y c #D58B23",
"u c #DA8E26",
"i c #D6812A",
"p c #D88529",
"a c #DA8929",
"s c #DD9424",
"d c #DE9D20",
"f c #DF972B",
"g c #DF982D",
"h c #D68232",
"j c #D88633",
"k c #DB8D36",
"l c #DB8F38",
"z c #D99231",
"x c #DD9339",
"c c #E09725",
"v c #E19B24",
"b c #E09B37",
"n c #E19E3C",
"m c #E5A522",
"M c #E7AA22",
"N c #E9AE21",
"B c #E7AB2B",
"V c #EAB222",
"C c #EFBD24",
"Z c #EAB128",
"A c #E3A336",
"S c #E3A53E",
"D c #E5AA3F",
"F c #E8B033",
"G c #ECB830",
"H c #EDBE3E",
"J c #F1C42E",
"K c #EFC53A",
"L c #F3CB32",
"P c #F3CB3C",
"I c #F5D33C",
"U c #E6AC40",
"Y c #E9B342",
"T c #ECBB44",
"R c #EFC341",
"E c #EEC348",
"W c #F0C448",
"Q c #F2CC4B",
"! c #F9DD46",
"~ c #F6D54B",
"^ c #F7D94F",
"/ c #FADF4E",
"( c #F8DB50",
") c #FAE044",
"_ c #FBE148",
"` c #FDE94F",
"' c #FBE654",
"] c #FFEC55",
"[ c #FFEF58",
"{ c #FFF157",
"} c #FFF158",
"| c None",
/* pixels */
"||||||||||||||||||||||||||||||||||||||||||||||||||||||||||||",
"||||||||||||||||||||||||||||||||||||||||||||||||||||||||||||",
"||||||||||||||||||||||||||||||||||||||||||||||||||||||||||||",
"||||||||||||||||||||||||||||||||||||||||||||||||||||||||||||",
"||||||||||||||||||||||||||||||||||||||||||||||||||||||||||||",
"||||||||||||||||||||||||||||||||||||||||||||||||||||||||||||",
"||||||||||||||||||||||||||||||||||||||||||||||||||||||||||||",
"||||||||||||||||||||||||||||||||||||||||||||||||||||||||||||",
"||||||||||||||||||||||||||||||||||||||||||||||||||||||||||||",
"||||||||||||||||||||||||||||||||4|||||||||||||||||||||||||||",
"|||||||||||||||||||||||||||||||444||||||||||||||||||||||||||",
"||||||||||||||||||||||||||||||||||||||||||||||||||||||||||||",
"||||||||||||||||||||||||||||||||||||||||||||||||||||||||||||",
"||||||||||||||||||||||||||||||||||||||||||||||||||||||||||||",
"||||||||||||||||||||||||||||||||||||||||||||||||||||||||||||",
"||||||||||||||||||||||||||||||||||||||||||||||||||||||||||||",
"||||||||||||||||||||||||||||||||||||||||||||||||||||||||||||",
"||||||||||||||||||||||||||||||||||||||||||||||||||||||||||||",
"|||||||||||||||||||||||||oo|||||||||||||||||||||||||||||||||",
"||||||||||||||||||||||||ooooo|||||||||||||||||||||||||||||||",
"|||||||||||||||||||||||oooooo|||||||||||||||||||||||||||||||",
"||||||||||||||||||||||ooooooo|||||||||||||||||||||||||||||||",
"||||||||||||||||||||||ooooo ||||||||||||||||||||||||||||||||",
"|||||||||||||||||||||||oooo|||||||||||||||||||||||||||||||||",
"||||||||||||||||||||||||o ||||||||||||||||||||||||||||||||||",
"||||||||||||||||||||||||||||||444|||||||||||||||||||||||||||",
"|||||||||||||||||||||||||||||44444||||||||||||||||||||||||||",
"||||||||||||||||||||||||||||4,2444||||||||||||||||||||||||||",
"|||||||||||||||||||||||||||4444444||||||||||||||||||||||||||",
"||||||||||||||||||||||||||447kk744||||||||||||||||||||||||||",
"||||||||||||||||||||||64||,4xTTx4444||||||||||||||||||||||||",
"|||||||||||||||||||||444|||4U^^S6,24||||||||||||||||||||||||",
"||||||||||||||||||||4444||||E](S644,&o||||||||||||||||||||||",
"|||||||||||||||||||44444|||||'Qn4,,;$o||||||||||||||||||||||",
"|||||||||||||||||||44444|||||TUk4:;%+X||||||||||||||||||||||",
"|||||||||||||||||||46444|||||h762;$+Oo||||||||||||||||||||||",
"|||||||||||||||||||,444,||||;,,:;%o$#-1|||||||||||||||||||||",
"||||||||||||||||| $;464,%  o%:,&++o#ed80||||||||||||||||||||",
"||||||||||||||||| $=,,4;% o$;25-#Oo*d0q0N|||||||||||||||||||",
"||||||||||||||||| ++&;,:%+$=2sdsr*$*sqqqmp||||||||||||||||||",
"||||||||||||||||| +++;,:%O=2um0q81#-sNVMv54|||||||||||||||||",
"|||||||||||||||||X +&:,:$@>um9qq0deruccca54|||||||||||||||||",
"|||||||||||||||||O+=,44:$@180000098cp545442|||||||||||||||||",
"||||||||||||||||>><1pi4;+@rMw00q0qCmp2,4,,;|||||||||||||||||",
"|||||||||||||||4ps88mu4;$@r9q0q0qq0mp6,4:%$|||||||||||||||||",
"||||||||||||||44aM0qVma,&#r9q098m8msi2,,&+ |||||||||||||||||",
"||||||||||||||,4aM0q0Nmu2<s8q08staap52;%$+ |||||||||||||||||",
"||||||||||||||44aM00V0Nvi5fVCCBfh64442&+   |||||||||||||||||",
"||||||||||||||,4aMqq0Mva45APIIPHUx7,4,=o   |||||||||||||||||",
"||||||||||||||44am00Nsi44jT/]`]](Uh4,,=+   |||||||||||||||||",
"|||||||||||||||43yyyy347lUQ'{{{}'Rvi4,;%$+ |||||||||||||||||",
"|||||||||||||||||####;,kT(']]]]}'IZci6,,=+ |||||||||||||||||",
"|||||||||||||||||XXXo#3A~]}]]]]]'!JBp,4,;%%|||||||||||||||||",
"|||||||||||||||||XXXo-sZ!][]]][[]`!Hz6,6,,;|||||||||||||||||",
"|||||||||||||||||+++@1BL_][]]]]]{{]Qb555542|||||||||||||||||",
"|||||||||||||||||;=&;zP)`]]]]]]]]{]~Fccca5,&+|||||||||||||||",
"|||||||||||||||||2227U^]]]]]]][]]{]!J099vi,%+ ||||||||||||||",
"||||||||||||||||=,7xUQ']]]]]]]]]]]]!J0q0m5,;&%||||||||||||||",
"|||||||||||||||+%:jT^']]]]]]][[]]]]!J000m5,,,,||||||||||||||",
"|||||||||||||| +%:kW]}]]]]{]]]]]]]]!J0q0vi,646||||||||||||||"
};
