/* XPM */
static char *f4[] = {
/* columns rows colors chars-per-pixel */
"60 60 82 1 ",
"  c #AD4627",
". c #AF4827",
"X c #AE4628",
"o c #AF4828",
"O c #B24B28",
"+ c #BB5D26",
"@ c #B65229",
"# c #B9552A",
"$ c #BD5A2A",
"% c #BE6226",
"& c #C15E2B",
"* c #C36A27",
"= c #C5642B",
"- c #C8672C",
"; c #C76C28",
": c #CC6C2D",
"> c #CF7E26",
", c #CF712D",
"< c #CF7928",
"1 c #D1732E",
"2 c #D37A2C",
"3 c #D47C31",
"4 c #E7AB1F",
"5 c #E9AF1F",
"6 c #ECB41E",
"7 c #EEBA1E",
"8 c #D28424",
"9 c #D98426",
"0 c #D68D22",
"q c #DA8D25",
"w c #D7822A",
"e c #D98529",
"r c #DB8B28",
"t c #DD9325",
"y c #DD9229",
"u c #D68032",
"i c #D88634",
"p c #DC9037",
"a c #DF993B",
"s c #E09725",
"d c #E19B24",
"f c #E0992F",
"g c #E29F33",
"h c #E09D3C",
"j c #E5A522",
"k c #E7A921",
"l c #E9AD21",
"z c #E4A32E",
"x c #EBB224",
"c c #E3A335",
"v c #E3A33B",
"b c #E6AB3D",
"n c #EBB635",
"m c #EDBB31",
"M c #EAB53D",
"N c #F1C52E",
"B c #F2C82F",
"V c #F1C533",
"C c #F3CB34",
"Z c #F2C83A",
"A c #F7D63D",
"S c #F9DB3F",
"D c #E5AB40",
"F c #EDBE46",
"G c #EEC148",
"H c #F0C749",
"J c #F5D246",
"K c #F7DA47",
"L c #F9DD46",
"P c #F5D54D",
"I c #F7D84C",
"U c #F8DA4A",
"Y c #F7DA51",
"T c #F8DE51",
"R c #F9E147",
"E c #FCE34B",
"W c #FDE94F",
"Q c #FBE352",
"! c #FFED56",
"~ c #FFF157",
"^ c #FFF258",
"/ c None",
/* pixels */
"////////////////////////////////////////////////////////////",
"////////////////////////////////////////////////////////////",
"////////////////////////////////////////////////////////////",
"////////////////////////////////////////////////////////////",
"////////////////////////////////////////////////////////////",
"////////////////////////////////////////////////////////////",
"////////////////////////////////////////////////////////////",
"////////////////////////////////////////////////////////////",
"////////////////////////////////////////////////////////////",
"////////////////////////////////////////////////////////////",
"////////////////////////////////////////////////////////////",
"////////////////////////////////////////////////////////////",
"////////////////////////////////////////////////////////////",
"////////////////////////////////////////////////////////////",
"////////////////////////////////////////////////////////////",
"////////////////////////oo//////////////////////////////////",
"////////////////////////oo//////////////////////////////////",
"////////////////////////oo/////11///////////////////////////",
"////////////////////////o /////111//////////////////////////",
"//////////////////////////////1111//////////////////////////",
"/////////////////////////////11,,,//////////////////////////",
"/////////////////////////////1:=&&//////////////////////////",
"/////////////////////////////1:$@O//////////////////////////",
"/////////////////////////////e<=O///////////////////////////",
"/////////////////////////////jd8////////////////////////////",
"/////////////////////////////66/////////////////////////////",
"////////////////////111//////77/////////////////////////////",
"///////////////////11111/////6x/////////////////////////////",
"///////////////////11111/////00/////////////////////////////",
"///////////////////11111/////++/////11111///////////////////",
"///////////////////1111,////XXX/////11111///////////////////",
"///////////////////3111-$o XXXX/////11111///////////////////",
"///////////////////:,1,-#o XXXX/////,1111///////////////////",
"///////////////////&&-,-#X X   ////$:1111///////////////////",
"///////////////////O@&:-#o X. .///o#=1111///////////////////",
"///////////////////@#=:-#Xo#$%*;/OO@-1:=-///////////////////",
"///////////////////=-::=@o#=<009:$O@-:=##///////////////////",
"///////////////////1111;++;2ykky2=@#=-$OX///////////////////",
"//////////////////111112>80tk66ky<=$$$OXX///////////////////",
"/////////////////11111,wt56lx6654t2=#OOOX///////////////////",
"/////////////////11,111rk777776kdr2:&#Oo ///////////////////",
"/////////////////111111ej67666ktw21,:=#O .o/////////////////",
"/////////////////111,:-2tkkkkkde1,111,=@Oo./////////////////",
"/////////////////1111=&=2rrqqew1:::11,-=$O /////////////////",
"/////////////////111:$O@=,1133333331111,=@o/////////////////",
"//////////////////:=&#OO#&=,ivDDbDDh3111=OO#////////////////",
"///////////////////@OOooO@=,aGTQTTTFp11,&O@=1///////////////",
"///////////////////   .OO#&1vP~^~^!Pcw21-$$=11//////////////",
"/////////////////// .  O&-:1vP^^!^!Kmtq1:--:11//////////////",
"///////////////////.oOO$-112vP!!!!!LCxy2,11111//////////////",
"//////////////////  O@$=:19snI!^!!!WRZc2111111//////////////",
"/////////////////OX O$-1,2slCE!!!!!!!Iv3:11111//////////////",
"////////////////=+@.O$:1,2zVSE!!!!!!^TD3,11111//////////////",
"///////////////1::=OO#:,:ubKW!!!!!!!^TD3:,1111//////////////",
"//////////////1111:=%;2wiaGQ~!!!!!!!WJv3,,,::://////////////",
"//////////////1111280tdcMHY!!!!!!!!EAmg2,1:=$@//////////////",
"//////////////:111ed566NK!!!!!!!!!!LBly2,1-#.X//////////////",
"/////////////#-12rdl676NL!!!!!!!!!!LN4q211:#X //////////////",
"////////////XO&1ejl6666NL!!!!!!!!!!LNlq2,,:#X //////////////",
"////////////XO$1rk76666NL!!!!!!!!!!LNky2,1:#OX//////////////"
};
