/* XPM */
static char *f5[] = {
/* columns rows colors chars-per-pixel */
"60 60 92 1 ",
"  c #AD4627",
". c #AF4827",
"X c #AD4528",
"o c #AF4828",
"O c #B14C27",
"+ c #B14B28",
"@ c #B45227",
"# c #BB5D26",
"$ c #B65129",
"% c #B95429",
"& c #BD5A2A",
"* c #BD6831",
"= c #C15F2B",
"- c #C36727",
"; c #C46C25",
": c #C5642B",
"> c #C9672C",
", c #C46828",
"< c #CC6D2D",
"1 c #D06F2E",
"2 c #C67025",
"3 c #C87524",
"4 c #CE7B26",
"5 c #CE712D",
"6 c #D1732E",
"7 c #D47B2C",
"8 c #C26C30",
"9 c #CE7631",
"0 c #CE7A33",
"q c #D47B31",
"w c #E4A61F",
"e c #E6AB1F",
"r c #E8AB1F",
"t c #EBB41E",
"y c #EEB91E",
"u c #D58326",
"i c #D88527",
"p c #D48B22",
"a c #DB8E25",
"s c #D6822A",
"d c #D98629",
"f c #DA8A29",
"g c #DD9325",
"h c #DF9D21",
"j c #DD932F",
"k c #D68233",
"l c #D88535",
"z c #DB8D36",
"x c #DC9239",
"c c #DF993A",
"v c #E19C24",
"b c #E09A30",
"n c #E19D3C",
"m c #E4A223",
"M c #E7A921",
"N c #E8AD20",
"B c #E7AC2A",
"V c #ECB521",
"C c #EEBB23",
"Z c #EDBA29",
"A c #E3A434",
"S c #E3A43D",
"D c #E4AB3D",
"F c #EDBC34",
"G c #EAB43D",
"H c #F1C42C",
"J c #EFC33A",
"K c #F1C432",
"L c #F3CA33",
"P c #F4CE3B",
"I c #F6D23B",
"U c #DFAE45",
"Y c #E6AC40",
"T c #EAB544",
"R c #EDBF42",
"E c #EFC449",
"W c #F0C649",
"Q c #F2CC4B",
"! c #F7D542",
"~ c #F9DB44",
"^ c #F5D44D",
"/ c #F7D948",
"( c #F9DC4B",
") c #F8DE51",
"_ c #FBE246",
"` c #FBE34C",
"' c #FBE452",
"] c #FEEC55",
"[ c #FFEF58",
"{ c #FFF157",
"} c #FFF258",
"| c None",
/* pixels */
"||||||||||||||||||||||||||||||||||||||||||||||||||||||||||||",
"||||||||||||||||||||||||||||||||||||||||||||||||||||||||||||",
"||||||||||||||||||||||||||||||||||||||||||||||||||||||||||||",
"||||||||||||||||||||||||||||||||||||||||||||||||||||||||||||",
"||||||||||||||||||||||||||||||||||||||||||||||||||||||||||||",
"||||||||||||||||||||||||||||||||||||||||||||||||||||||||||||",
"||||||||||||||||||||||||||||||||||||||||||||||||||||||||||||",
"||||||||||||||||||||||||||||||||||||||||||||||||||||||||||||",
"||||||||||||||||||||||||||||||||||||||||||||||||||||||||||||",
"||||||||||||||||||||||||||||||||||||||||||||||||||||||||||||",
"|||||||||||||||||||||||||||oo|||||||||||||||||||||||||||||||",
"|||||||||||||||||||||||||||o||||||||||||||||||||||||||||||||",
"||||||||||||||||||||||||||||||||||||||||||||||||||||||||||||",
"||||||||||||||||||||||||||||||||||||||||||||||||||||||||||||",
"||||||||||||||||||||||||||||||||||||||||||||||||||||||||||||",
"|||||||||||||||||||||||||||||||661||||||||||||||||||||||||||",
"||||||||||||||||||||||||||||||vs66||||||||||||||||||||||||||",
"|||||||||||||||||||||||||||||tmd61||||||||||||||||||||||||||",
"|||||||||||||||||||||||||||||tms<:||||||||||||||||||||||||||",
"||||||||||||||||||||||||||||||g,&%||||||||||||||||||||||||||",
"|||||||||||||||||||||||||||||||O+o||||||||||||||||||||||||||",
"||||||||||||||||||||||||||||||||||||||||||||||||||||||||||||",
"||||||||||||||||||||||||||||||||||||||||||||||||||||||||||||",
"||||||||||||||||||||||||||||||||||||||||||||||||||||||||||||",
"||||||||||||||||||||||66||||||||||||6666||||||||||||||||||||",
"|||||||||||||||||||||666||||||||||||61666|||||||||||||||||||",
"||||||||||||||||||||6666||||||||||||66666|||||||||||||||||||",
"|||||||||||||||||||16666||||||||||||66666|||||||||||||||||||",
"|||||||||||||||||||66666||||||||||||6666||||||||||||||||||||",
"|||||||||||||||||||61666||||||||||||166|||||||||||||||||||||",
"||||||||||||||||||||6666||||||||||||<<||||||||||||||||||||||",
"|||||||||||||||||||||666|||11<5|||||&%||||||||||||||||||||||",
"|||||||||||||||||||||616||77776|||||+o||||||||||||||||||||||",
"|||||||||||||||||||||917vmvgagfd||||  ||||||||||||||||||||||",
"|||||||||||||||||||1666dmtVMrrmf6|||X.||||||||||||||||||||||",
"|||||||||||||||||||167dgMttVytef71||Oo |||||||||||||||||||||",
"|||||||||||||||||||57fmrVtttyyMf665:$o .||||||||||||||||||||",
"|||||||||||||||||||<5ivrtttttrvd665>%o.oX|||||||||||||||||||",
"|||||||||||||||||||&#-3pwtytwgi7166>%XXXX|||||||||||||||||||",
"|||||||||||||||||||+++@,gtytmd7q666>$o..O|||||||||||||||||||",
"|||||||||||||||||||  XX#umZKFScScz6:@.#;2|||||||||||||||||||",
"|||||||||||||||||||    %2zT/()^^QYq:@@3gg76|||||||||||||||||",
"||||||||||||||||||| +++%:kT'}}{{'Ex9##peMf7<||||||||||||||||",
"||||||||||||||||||| +$=><kT'}}{}])EY05grVma;O|||||||||||||||",
"||||||||||||||||||| O%<11kT'}]]]]]]Ex7gNytv2OX||||||||||||||",
"||||||||||||||||||| O=<61qT'}]]]]}}Qx7gVyyw4=%||||||||||||||",
"|||||||||||||||||||XO=<66kT'{]]]]}]Wx7gryymf5>||||||||||||||",
"|||||||||||||||||||OO%<77jR'}]]]]]]^AfgmNtMf61||||||||||||||",
"|||||||||||||||666>OO&17gBP'{]]]]}]/FvafgrNf65||||||||||||||",
"||||||||||||||6666<&$&<dmCI`]]]]]]`~Hea7fvmf7<||||||||||||||",
"||||||||||||||66661>=:<smyHP~'{}]~IHCMa77ff766||||||||||||||",
"||||||||||||||66669<196fmtyCL`]]'!HCyMa767666<||||||||||||||",
"||||||||||||||6166666lnDFHCtCP~]]~PLLFb711<<:>||||||||||||||",
"||||||||||||||69661<qnW(`~LCtCL~]````!Sq15<&$+||||||||||||||",
"||||||||||||||><<567dG(}{'!HCHK~]][]})Yq<<:$X ||||||||||||||",
"||||||||||||||%&=<7fmJ'}{]`~I!~`]]}}}'Yq>&$O  ||||||||||||||",
"|||||||||||||||+%>7vZI`]]]]]]]]]]]]]]^Sq=$+oo|||||||||||||||",
"|||||||||||||||o+=5AI_]]]][][}]]]]]`WDx7>=%$+|||||||||||||||",
"|||||||||||||||||o8D(]]]]]]]]]][]{]QSqq611<|||||||||||||||||",
"|||||||||||||||||X*U]}{]][]]}]]]]{]Qx<<5617|||||||||||||||||"
};
