/* XPM */
static char *witch5[] = {
/* columns rows colors chars-per-pixel */
"60 60 114 2 ",
"   c #1A1620",
".  c #251D2C",
"X  c #281E2F",
"o  c #251F30",
"O  c #272131",
"+  c #292333",
"@  c #272A37",
"#  c #292937",
"$  c #2E2739",
"%  c #2C2A3A",
"&  c #312A3D",
"*  c #35303E",
"=  c #362D45",
"-  c #392E47",
";  c #3A2F48",
":  c #2D3442",
">  c #2E3946",
",  c #2F3B48",
"<  c #393047",
"1  c #353749",
"2  c #3B324A",
"3  c #313C4A",
"4  c #3A394F",
"5  c #3C3E53",
"6  c #41394F",
"7  c #31414E",
"8  c #2F4A52",
"9  c #3C4255",
"0  c #334A54",
"q  c #3E4659",
"w  c #354E5A",
"e  c #3C4A5B",
"r  c #38515D",
"t  c #3F4F60",
"y  c #3F5061",
"u  c #355C63",
"i  c #3B5D66",
"p  c #356166",
"a  c #35676A",
"s  c #3A626A",
"d  c #356A6C",
"f  c #396E72",
"g  c #377172",
"h  c #397576",
"j  c #3A7678",
"k  c #3C7A7B",
"l  c #4A454F",
"z  c #4A4256",
"x  c #4B4D5F",
"c  c #544E5A",
"v  c #405264",
"b  c #5F5766",
"n  c #5F5967",
"m  c #605C63",
"M  c #645E6A",
"N  c #44767D",
"B  c #66606D",
"V  c #6A656E",
"C  c #6B686D",
"Z  c #746967",
"A  c #696470",
"S  c #707675",
"D  c #747C79",
"F  c #7E7C7D",
"G  c #85807F",
"H  c #95867E",
"J  c #477E86",
"K  c #487E87",
"L  c #3C8283",
"P  c #49828A",
"I  c #448E8E",
"U  c #4B8E93",
"Y  c #469393",
"T  c #4A9396",
"R  c #4C9699",
"E  c #4C9B9D",
"W  c #618D87",
"Q  c #4C9FA0",
"!  c #4FA4A5",
"~  c #4FA7A8",
"^  c #4FA8A8",
"/  c #51A6A6",
"(  c #5AA4A5",
")  c #50A7A8",
"_  c #51A8A8",
"`  c #878682",
"'  c #969B8E",
"]  c #949290",
"[  c #9D9A9A",
"{  c #A19588",
"}  c #AF9F92",
"|  c #B09E91",
" . c #A3A19F",
".. c #B2A293",
"X. c #A7A6A2",
"o. c #A9A7A4",
"O. c #A2ABA7",
"+. c #A9A8A3",
"@. c #ADACA8",
"#. c #BCB7A6",
"$. c #B6B5AE",
"%. c #BEBEB5",
"&. c #C4B39D",
"*. c #A0C2B5",
"=. c #D0C3AE",
"-. c #C0C0B7",
";. c #C4C4BB",
":. c #C8C8BE",
">. c #CCCCC2",
",. c #D1D1C6",
"<. c #D5D5CA",
"1. c #D9D9CE",
"2. c #DCDCD1",
"3. c None",
/* pixels */
"3.3.3.3.3.3.3.3.3.3.3.3.3.3.3.3.3.3.3.3.3.3.3.3.3.3.3.3.3.3.3.3.3.3.3.3.3.3.3.3.3.3.3.3.3.3.3.3.3.3.3.3.3.3.3.3.3.3.3.3.",
"3.3.3.3.3.3.3.3.3.3.3.3.3.3.3.3.3.3.3.3.3.3.3.3.! 3.3.3.3.3.3.3.3.3.3.3.3.3.3.3.3.3.3.3.3.3.3.3.3.3.3.3.3.3.3.3.3.3.3.3.",
"3.3.3.3.3.3.3.3.3.3.3.3.3.3.3.3.3.3.3.3.3.3.3.3.3.3.3.3.3.3.3.3.3.3.3.3.3.3.3.3.3.3.3.3.3.3.3.3.3.3.3.3.3.3.3.3.3.3.3.3.",
"3.3.3.3.3.3.3.3.3.3.3.3.3.3.3.3.3.3.3.3.3.3.3.3.3.3.3.3.3.3.3.3.3.3.3.3.3.3.3.3.3.3.3.3.3.3.3.3.3.3.3.3.3.3.3.3.3.3.3.3.",
"3.3.3.3.3.3.3.3.3.3.3.3.3.3.3.3.3.3.3.3.3.! ! 3.3.g 3.3.3.3.3.3.3.3.3.3.3.3.3.3.3.3.3.3.3.3.3.3.3.3.3.3.3.3.3.3.3.3.3.3.",
"3.3.3.3.3.3.3.3.3.3.3.3.3.3.3.3.3.3.3.3.3.3.! ! 3.3.3.3.3.3.3.3.3.3.3.3.3.3.! ! 3.3.3.3.3.3.3.3.3.3.3.3.3.3.3.3.3.3.3.3.",
"3.3.3.3.3.3.3.3.3.3.3.3.3.3.3.3.3.3.3.3.3.3.3.3.3.3.3.3.3.3.3.3.3.3.3.3.! ! 3.3.3.3.3.3.3.3.3.3.3.3.3.3.3.3.3.3.3.3.3.3.",
"3.3.3.3.3.3.3.3.3.3.3.3.3.3.3.3.3.3.3.3.3.3.3.3.3.3.3.3.3.3.3.3.3.3.3.3.3.3.3.3.3.3.3.3.3.3.3.3.3.3.3.3.3.3.3.3.3.3.3.3.",
"3.3.3.3.3.3.3.3.3.3.3.3.3.3.3.3.3.3.3.3.3.3.3.3.3.3.3.3.3.3.3.3.3.3.3.3.3.3.3.3.3.3.3.3.3.3.3.3.3.3.3.3.3.3.3.3.3.3.3.3.",
"3.3.3.3.3.3.3.3.3.3.3.3.3.3.3.3.3.3.3.3.3.3.3.3.3.3.3.3.3.3.3.3.3.3.3.3.3.3.3.3.3.g 3.3.3.3.3.3.3.3.3.3.3.3.3.3.3.3.3.3.",
"3.3.3.3.3.3.3.3.3.3.3.3.3.3.3.3.3.3.3.3.3.3.3.3.3.3.3.3.3.3.3.3.3.3.3.3.3.3.3.3.g 3.3.3.3.3.3.3.3.3.3.3.3.3.3.3.3.3.3.3.",
"3.3.3.3.3.3.3.3.3.3.3.3.3.3.3.3.3.3.3.3.3.3.3.3.3.3.3.3.3.3.3.3.3.3.3.3.3.3.3.3.3.3.3.3.3.3.3.3.3.3.3.3.3.3.3.3.3.3.3.3.",
"3.3.3.3.3.3.3.3.3.3.3.! 3.3.3.3.3.3.3.3.3.3.3.3.3.3.3.3.3.3.3.3.3.3.3.3.3.3.3.3.3.3.3.3.3.3.3.3.3.3.3.3.3.3.3.3.3.3.3.3.",
"3.3.3.3.3.3.3.3.3.3.! ! ! 3.3.3.3.3.3.3.3.3.3.3.3.3.3.3.3.3.3.3.3.3.3.3.3.3.3.3.3.3.3.3.3.3.3.3.3.3.3.3.3.3.3.3.3.3.3.3.",
"3.3.3.3.3.3.3.3.3.3.3.3.E Q 3.3.3.3.3.3.3.3.3.3.3.3.3.3.3.e e 3.3.3.3.3.3.3.3.3.3.3.3.3.3.3.3.3.3.3.3.3.3.3.3.3.3.3.3.3.",
"3.3.3.3.3.3.3.3.! 3.3.3.j j 3.3.3.3.3.3.3.3.3.3.3.3.3.3.4 2 % 3.3.3.3.3.3.3.3.3.3.3.3.3.3.3.3.3.3.3.3.3.3.3.3.3.3.3.3.3.",
"3.3.3.3.3.3.3./ ! 3.3.3.3.3.3.3.3.3.3.3.3.3.3.3.3.3.3.3.2 ; 3.3.3.3.3.3.3.3.3.3.3.3.3.3.3.3.3.3.3.3.3.3.3.3.3.3.3.3.3.3.",
"3.3.3.3.3.3.3.3.Y g g 3.3.3.3.3.3.3.3.3.3.3.3.3.3.3.3.5 2 2 3.3.3.3.3.3.3.3.3.3.3.3.3.3.3.3.3.3.3.3.3.3.3.3.3.3.3.3.3.3.",
"3.3.3.3.3.3.3.3.3.g g 3.3.3.3.3.3.3.3.3.3.3.3.3.3.3.x 5 ; 2 3.3.3.3.3.3.3.3.3.3.3.3.3.3.3.3.3.3.3.3.3.3.3.3.3.3.3.3.3.3.",
"3.3.3.3.3.3.3.3.3.3.3.3.3.3.3.3.3.3.3.3.3.3.3.3.3.3.< < 2 4 e 3.3.3.3.3.3.3.3.3.3.3.3.3.3.3.3.3.3.3.3.3.3.3.3.3.3.3.3.3.",
"3.3.3.3.3.3.3.3.3.3.3.3.3.3.3.3.3.3.3.3.3.3.3.3.3.3.2 2 2 2 2 3.3.3.3.3.3.3.3.3.3.3.3.3.3.3.3.3.3.3.3.3.3.3.3.3.3.3.3.3.",
"3.3.3.3.3.3.3.3.3.3.3.3.3.3.3.3.3.3.3.3.3.3.3.3.3.2 2 2 2 2 2 2 3.3.3.3.3.3.3.3.3.3.3.3.3.3.3.3.3.3.3.3.3.3.3.3.3.3.3.3.",
"3.3.3.3.3.3.3.3.3.3.3.3.3.3.3.3.3.3.3.3.3.3.3.3.j 4 ; 2 2 2 2 - e 3.3.3.3.0 3.3.3.3.3.3.3.3.3.3.3.3.3.3.3.3.3.3.3.3.3.3.",
"3.3.3.3.3.3.3.3.3.3.3.3.3.3.3.3.3.3.3.3.3.3.3.3.u q 9 4 ; ; ; e i 0 + + : 3 , 3.3.3.3.3.3.3.3.3.3.3.3.3.3.3.3.3.3.3.3.3.",
"3.3.3.3.3.3.3.3.3.3.3.3.3.3.3.3.3.3.3.3.3.7 : O % p d r 9 9 z J i O O + + + + % e 3.3.3.3.3.3.3.3.3.3.3.3.3.3.3.3.3.3.3.",
"3.3.3.3.3.3.3.3.3.3.3.3.3.3.3.3.3.3.3.7 % + + + + % # s R R T w # + + + + & - 2 2 3.3.3.3.3.3.3.3.3.3.3.3.3.3.3.3.3.3.3.",
"3.3.3.3.3.3.3.3.3.3.3.3.3.3.3.3.3.3.3 % + + O + O O O : 0 0 0 # X + = = = < 2 2 q 3.3.3.3.3.3.3.3.3.3.3.3.3.3.3.3.3.3.3.",
"3.3.3.3.3.3.3.3.3.3.3.3.3.3.3.3.3.3.1 & + O O O + + O O X X $ % % = 2 2 2 2 4 9 v 3.3.3.3.3.3.3.3.3.3.3.3.3.3.3.3.3.3.3.",
"3.3.3.3.3.3.3.3.3.3.3.3.3.3.3.3.3.3.2 2 $ $ $ $ $ $ $ $ $ & ; 2 2 2 2 ; 2 2 4 v 3.3.3.3.3.3.3.3.3.3.3.3.3.3.3.3.3.3.3.3.",
"3.3.3.3.3.3.3.3.3.3.3.3.3.3.3.3.3.3.2 2 2 2 2 2 2 ; 2 2 2 2 2 ; 2 < 4 4 4 2 2 3.3.3.3.3.3.3./ 3.3.3.3.3.3.3.3.3.3.3.3.3.",
"3.3.3.3.3.3.3.3.3.3.3.3.3.3.3.3.3.3.3.2 2 2 2 2 2 2 2 2 2 2 2 2 2 9 d d d s 3.3.3.3.3.3.3.3.3.3.3.3.3.3.3.3.3.3.3.3.3.3.",
"3.3.3.3.3.3.3.3.3.3.3.3.3.3.3.3.3.3.3.3.3.u i w 2 ; - M V & Z ` c : h Y T 3.3.3.3.3.3.3.3.3.3.3.3.3.g 3.3.3.3.3.3.3.3.3.",
"3.3.3.3.3.3.3.3.3.3.3.3.3.3.3.3.3.3.3.3.3.I I k r r w S { H &.=.} D I ! / 3.3.3.3.3.3.3.3.3.3.3.3.3.3.3.3.3.3.3.3.3.3.3.",
"3.3.3.3.3.3.! 3.3.3.3.3.3.3.3.3.3.3.3.3.3.3.) E L L L W ' ..| | #.*.) ! / 3.3.3.3.3.3.3.3.3.3.3.3.3.3.3.3.3.3.3.3.3.3.3.",
"3.3.3.3.3.! 3.3.3.3.3.3.3.3.3.3.3.3.3.3.3.3.3./ ( E R E N $ + o i R R ! 3.3.3.3.3.3.3.3.3.3.3.3.3.3.3.3.3.3.3.3.3.3.3.3.",
"3.3.3.3.3.3.3.3.3.g 3.3.3.3.3.3.3.3.3.3.3.3.3.3.O.x 5 5 5 < + + # : : 3.3.3.3.3.3.3.3.3.3.3.3.3.3.3.3.3.3.3.3.3.3.3.3.3.",
"3.3.3.3.3.3.g g g 3.3.3.3.3.3.3.3.3.3.3.3.3.3. .m 6 ; ; ; ; + + O O O 3.3.3.3.3.3.3.3.3.3.3.3.3.3.3.3.3.3.3.3.3.3.3.3.3.",
"3.3.3.3.3.3.3.g 3.3.3.3.3.3.3.3.3.3.3.3.3.3.[ A - - 2 2 2 2 + + + + + + 3.3.3.3.3.3.3.3.3.3.3.3.3.3.3.3.3.3.3.3.3.3.3.3.",
"3.3.3.3.3.3.3.3.3.3.3.3.3.3.3.3.3.3.3.3.3.[ A = - 2 2 2 2 < $ + + $ O O 3.3.3.3.3.3.3.3.3.3.3.3.3.3.3.3.3.3.3.3.3.3.3.3.",
"3.3.3.3.3.3.3.3.3.3.3.3.3.3.3.3.3.3.3.3.3.2 2 2 ; ; 2 2 2 ; $ + O + O $ 3.3.3.3.3.3.3.3.3.3.3.3.3.3.3.3.3.3.3.3.3.3.3.3.",
"3.3.3.3.3.3.3.3.3.3.3.3.3.3.3.3.v 3.3.3.2 2 2 2 2 2 2 2 2 2 = $ + + + + + 3.3.3.O 3 3.3.3.3.3.3.3.3.3.3.3.3.3.3.3.3.3.3.",
"3.3.3.3.3.3.3.3.3.3.3.3.3.3.3.v 6 4 2 2 2 2 2 2 2 2 2 2 2 2 2 $ O $ + + + + + + O % 3.3.3.3.3.3.3.3.3.3.3.3.3.3.3.3.3.3.",
"3.3.3.3.3.3.3.3.3.3.3.3.3.3.3.9 4 ; 2 2 2 2 2 2 2 2 2 2 2 2 2 $ + + + + # + + + + O 3.3.3.3.3.3.3.3.3.3.3.3.3.3.3.3.3.3.",
"3.3.3.3.3.3.3.3.3.3.3.3.3.3.3.- ; 2 2 2 2 2 2 2 2 2 2 2 2 - 2 $ + + + + + + + + O O z 3.3.3.3.3.3.3.3.3.3.3.3.3.3.3.3.3.",
"3.3.3.3.3.3.3.3.3.3.3.3.3.3.3.z 4 ; 2 2 2 2 2 2 2 ; 2 2 2 5 5 $ O + + + + + + + + & F ;.3.3.3.3.3.3.3.3.3.3.3.3.3.3.3.3.",
"3.3.3.3.3.3.3.3.3.3.3.3.3.3.3.@.n ; 2 2 2 2 2 2 4 2 2 ; v Y f : O + + + + + + + + ` $.:.1.3.3.3.3.3.3.3.3.3.3.3.3.3.3.3.",
"3.3.3.3.3.3.3.3.3.3.3.3.3.3.%.-.X.M = 2 2 2 2 q P P P P Y Q h p r 8 O O + + + O + ] ;.;.1.3.3.3.3.3.3.3.3.3.3.3.3.3.3.3.",
"3.3.3.3.3.3.3.3.3.3.3.3.3.3.%.%.-.X.M = 2 2 v K / ^ ) ) ^ Q h g h a 0 0 % O O # C +.:.,.1.3.3.3.3.3.3.3.3.3.3.3.3.3.3.3.",
"3.3.3.3.3.3.3.3.3.3.3.3.3.3.:.%.%.;.o.M 6 3.3.~ ! ! / ! ) E h g h g g g > O * n $.:.,.1.1.3.3.3.3.3.3.3.3.3.3.3.3.3.3.3.",
"3.3.3.3.3.3.3.3.3.3.3.3.3.3.<.-.%.%.:.<.3.3.3.3.3.R R E E 3.d d a d g 3.3.3.3.-.-.,.1.1.1.3.3.3.3.3.3.3.3.3.3.3.3.3.3.3.",
"3.3.3.3.3.3.3.3.3.3.3.3.3.:.<.-.%.%.:.1.3.3.3.3.3.5 5 3 3.3.3.@ @ @ 3.3.3.3.3.1.1.1.1.1.1.3.3.3.3.3.3.3.3.3.3.3.3.3.3.3.",
"3.3.3.3.3.3.3.3.3.3.3.3.3.-.:.,.;.%.%.:.<.2.3.3.3.; ; $ 3.3.3.O + . 3.3.3.3.3.3.1.1.1.1.3.3.3.3.3.3.3.3.3.3.3.3.3.3.3.3.",
"3.3.3.3.3.3.3.3.3.3.3.3.3.%.-.<.,.;.%.%.>.<.:.` 3.+ $ 3.3.3.3.  .   3.3.3.3.3.3.1.1.1.1.3.3.3.3.3.3.3.3.3.3.3.3.3.3.3.3.",
"3.3.3.3.3.3.3.3.3.3.3.3.3.3.-.<.1.,.;.;.:.,.2.:.3.3.3.3.3.3.3.3.3.3.3.3.3.3.3.3.1.1.1.3.3.3.3.3.3.3.3.3.3.3.3.3.3.3.3.3.",
"3.3.3.3.3.3.3.3.3.3.3.3.3.3.-.<.1.1.1.1.1.1.1.1.,.3.3.3.3.3.3.3.3.3.3.3.3.3.3.3.1.1.3.3.3.3.3.3.3.3.3.3.3.3.3.3.3.3.3.3.",
"3.3.3.3.3.3.3.3.3.3.3.3.3.3.3.;.,.1.1.1.1.1.1.1.1.3.3.3.3.3.3.3.3.3.3.3.3.3.3.1.3.3.3.3.3.3.3.3.3.3.3.3.3.3.3.3.3.3.3.3.",
"3.3.3.3.3.3.3.3.3.3.3.3.3.3.3.3.<.1.1.1.1.1.1.1.1.3.3.3.3.3.3.3.3.3.3.3.3.3.3.3.3.3.3.3.3.3.3.3.3.3.3.3.3.3.3.3.3.3.3.3.",
"3.3.3.3.3.3.3.3.3.3.3.3.3.3.3.3.3.3.1.1.2.1.1.1.3.3.3.3.3.3.3.3.3.3.3.3.3.3.3.3.3.3.3.3.3.3.3.3.3.3.3.3.3.3.3.3.3.3.3.3.",
"3.3.3.3.3.3.3.3.3.3.3.3.3.3.3.3.3.3.3.1.1.1.1.3.3.3.3.3.3.3.3.3.3.3.3.3.3.3.3.3.3.3.3.3.3.3.3.3.3.3.3.3.3.3.3.3.3.3.3.3.",
"3.3.3.3.3.3.3.3.3.3.3.3.3.3.3.3.3.3.3.3.3.3.3.3.3.3.3.3.3.3.3.3.3.3.3.3.3.3.3.3.3.3.3.3.3.3.3.3.3.3.3.3.3.3.3.3.3.3.3.3."
};
