/* XPM */
static char *witch2[] = {
/* columns rows colors chars-per-pixel */
"60 60 128 2 ",
"   c #251E2E",
".  c #281E2F",
"X  c #281F30",
"o  c #272232",
"O  c #292333",
"+  c #292937",
"@  c #2E2739",
"#  c #2C2B3B",
"$  c #31293D",
"%  c #2A303F",
"&  c #362D44",
"*  c #3A2E47",
"=  c #3A2F48",
"-  c #2D3341",
";  c #2F3845",
":  c #2B3D4A",
">  c #393047",
",  c #3B324A",
"<  c #313D4B",
"1  c #3A3A4F",
"2  c #3D3D53",
"3  c #42394F",
"4  c #2F454F",
"5  c #31424E",
"6  c #2F4450",
"7  c #2F4B53",
"8  c #334551",
"9  c #3C4256",
"0  c #344A55",
"q  c #394857",
"w  c #3E4659",
"e  c #364F5A",
"r  c #3E4C5E",
"t  c #2C5057",
"y  c #35525C",
"u  c #39515D",
"i  c #32595F",
"p  c #3F4F60",
"a  c #3E5161",
"s  c #355F65",
"d  c #3B5D66",
"f  c #3F5A69",
"g  c #346669",
"h  c #3A636A",
"j  c #356B6D",
"k  c #386C6F",
"l  c #366F70",
"z  c #3C6C72",
"x  c #377172",
"c  c #3B7677",
"v  c #3A7779",
"b  c #3C7C7D",
"n  c #514B55",
"m  c #405162",
"M  c #465B64",
"N  c #505F67",
"B  c #635D6A",
"V  c #45767E",
"C  c #487C7B",
"Z  c #69636E",
"A  c #746967",
"S  c #6F6975",
"D  c #607477",
"F  c #807D7F",
"G  c #4A807F",
"H  c #85807F",
"J  c #95877E",
"K  c #3C7F80",
"L  c #477E86",
"P  c #827F81",
"I  c #3D8182",
"U  c #49868D",
"Y  c #458E8F",
"T  c #458F90",
"R  c #4A8B91",
"E  c #479394",
"W  c #4A9396",
"Q  c #4C9699",
"!  c #4C9B9D",
"~  c #798383",
"^  c #7F898A",
"/  c #699497",
"(  c #7DA59C",
")  c #4D9FA1",
"_  c #4FA4A5",
"`  c #4EA9A9",
"'  c #50A6A7",
"]  c #838485",
"[  c #8A8A83",
"{  c #819695",
"}  c #889291",
"|  c #839B91",
" . c #959B99",
".. c #989D9A",
"X. c #AF9E92",
"o. c #A39F9D",
"O. c #B09E91",
"+. c #86A19D",
"@. c #A5A59D",
"#. c #B3A294",
"$. c #BDAD9E",
"%. c #8AA6A1",
"&. c #90AAA5",
"*. c #8DB9B3",
"=. c #A5A4A1",
"-. c #ADADA5",
";. c #AFADA9",
":. c #B0AEAB",
">. c #ABB4AC",
",. c #BCB7A6",
"<. c #B2B1AB",
"1. c #BEBFAD",
"2. c #B4BEB6",
"3. c #BEBDB5",
"4. c #C4B29D",
"5. c #A0C2B4",
"6. c #D0C3AE",
"7. c #C0C0B7",
"8. c #C4C4BA",
"9. c #C9C8BE",
"0. c #CCCCC2",
"q. c #D1D1C6",
"w. c #D5D5CA",
"e. c #D9D9CE",
"r. c #DEDDD2",
"t. c #DFE0D3",
"y. c #E5E6D9",
"u. c None",
/* pixels */
"u.u.u.u.u.u.u.u.u.u.u.u.u.u.u.u.u.u.u.u.u.u.u.u.u.u.u.u.u.u.u.u.u.u.u.u.u.u.u.u.u.u.u.u.u.u.u.u.u.u.u.u.u.u.u.u.u.u.u.u.",
"u.u.u.u.u.u.u.u.u.u.u.u.u.u.u.u.u.u.u.u.u.u.u.u.u.u.u.u.u.u.u.u.u.u.u.u.u.u.u.u.u.u.u.u.u.u.u.u.u.u.u.u.u.u.u.u.u.u.u.u.",
"u.u.u.u.u.u.u.u.u.u.u.u.u.u.u.u.u.u.u.u.u.u.u.u.u.u.u.u.u.u.u.u.u.u.u.u.u.u.u.u.u.u.u.u.u.u.u.u.u.u.u.u.u.u.u.u.u.u.u.u.",
"u.u.u.u.u.u.u.u.u.u.u.u.u.u.u.u.u.u.u.u.u.u.u.u.u.u.u.u.u.u.u.u.u.u.u.u.u.u.u.u.u.u.u.u.u.u.u.u.u.u.u.u.u.u.u.u.u.u.u.u.",
"u.u.u.u.u.u.u.u.u.u.u.u.u.u.u.u.u.u.u.u.u.u.u.u._ u.u.u.u.u.u.u.u.u.u.u.u.u.u.u.u.u.u.u.u.u.u.u.u.u.u.u.u.u.u.u.u.u.u.u.",
"u.u.u.u.u.u.u.u.u.u.u.u.u.u.u.u.u.u.u.u.u.u.u.u.u.u.u.u.u.u.u.u.u.u.u.u.u.u.u.u.u.u.u.u.u.u.u.u.u.u.u.u.u.u.u.u.u.u.u.u.",
"u.u.u.u.u.u.u.u.u.u.u.u.u.u.u.u.u.u.u.u.u.u.u.u.u.u.u.u.u.u.u.u.u.u.u.u.u.u.u.u.u.u.u.u.u.u.u.u.u.u.u.u.u.u.u.u.u.u.u.u.",
"u.u.u.u.u.u.u.u.u.u.u.u.u.u.u.u.u.u.u.u.u.u.u.u.u.u.u.u.u.u.u.u.u.u.u.u.u.u.u.u.u.u.u.u.u.u.u.u.u.u.u.u.u.u.u.u.u.u.u.u.",
"u.u.u.u.u.u.u.u.u.u.u.u.u.u.u.u.u.u.u.u.u.u.u.u.u.u.u.u.u.u.u.u.u.u.u.u.u._ ! u.u.u.u.u.u.u.u.u.u.u.u.u.u.u.u.u.u.u.u.u.",
"u.u.u.u.u.u.u.u.u.u.u.u.u.u.u.u.u.u.u.u.u.u.u.u.u.u.u.u.u.u.u.u.u.u.u.u._ _ E x u.u.u.u.u.u.u.u.u.u.u.u.u.u.u.u.u.u.u.u.",
"u.u.u.u.u.u.u.u.u.u.u.u.u.u.u.u.u.u.u.u.u.u.u.u.u.u.u.u.u.u.u.u.u.u.u.u.u.b c u.u.u.u.u.u.u.u.u.u.u.u.u.u.u.u.u.u.u.u.u.",
"u.u.u.u.u.u.u.u.u.u.u.u.u.u.u.u.u.u.u.u.u.u.u.u.u.u.u.u.m u.u.u.u.u.u.u.u.u.u.u.u.u.u.u.u.u.u.u.u.u.u.u.u.u.u.u.u.u.u.u.",
"u.u.u.u.u.u.u.u.u.u.u.u.u.u.u.u.u.u.u.u.u.u.u.u.u.u.u.m m u.u.u.u.u.u.u.u.u.u.u.u.u.u.u.u.u.u.u.u.u.u.u.u.u.u.u.u.u.u.u.",
"u.u.u.u.u.u.u.u.u.u._ E u.u.u.u.u.u.u.u.u.u.u.u.u.u.u.w w u.u.u.u.u.u.u.u.u.u.u.u.u.u.u.u.u.u.u.u.u.u.u.u.u.u.u.u.u.u.u.",
"u.u.u.u.u.u.u.u.u._ ! b u.u.u.u.u.u.u.u.u.u.u.u.u.u.u.= 2 a u.u.u.u.u.u.u.u.u.u.u.u.u.u.u.u.u.u.u.u.u.u.u.u.u.u.u.u.u.u.",
"u.u.u.u.u.u.u.u.u.u.v u.u.u.u.u.u.u.u.u.u.u.u.u.u.u., = 2 a u.u.u.u.u.u.u.u.u.u.u.u.u.u.u.u.u.u.u.u.u.u.u.u.u.u.u.u.u.u.",
"u.u.u.u.u.u.u.u.u.u.u.u.u.u.u.u.u.u.u.u.u.u.u.u.u.u., , , 2 p u.u.u.u.u.u.u.u.u.u.u.u.u.u.u.u.u.u.u.u.u.u.u.u.u.u.u.u.u.",
"u.u.u.u.u.u.u.u.u.u.u.u.u.u.u.u.u.u.u.u.u.u.u.u.u.u., , , , r u.u.u.u.u.u.u.u.u.u.u.u.u.u.u.u.u.u.u.u.u.u.u.u.u.u.u.u.u.",
"u.u.u.u.u.u.u.u.u.u.u.u.u.u.u.u.u.u.u.u.u.u.u.u.u.u.2 , , , w u.u.u.u.u.u.u.u.u.u.u.u.u.u.u.u.u.u.u.u.u.u.u.u.u.u.u.u.u.",
"u.u.u.u.u.u.u.u.u.u.u.u.u.u.u.u.u.u.u.u.u.u.u.u.u.u.r 9 , , , u.u.u.u.u.u.u.u.u.u.u.u.u.u.u.u.u.u.u.u.u.u.u.u.u.u.u.u.u.",
"u.u.u.u.u.u.u.u.u.u.u.u.u.u.u.u.u.u.u.u.u.u.u.u.u.m 2 , , , , u.u.u.u.u.u.u.u.u.u.u.u.u.u.u.u.u.u.u.u.u.u.u.u.u.u.u.u.u.",
"u.u.u.u.u.u.u.u.u.u.u.u.u.u.u.u.u.u.u.u.u.u.u.u.u.2 , , , , , w u.u.u.u.u.u.u.u.u.u.u.u.u.u.u.u.u.u.u.u.u.u.u.u.u.u.u.u.",
"u.u.u.u.u.u.u.u.u.u.u.u.u.u.u.u.u.u.u.u.u.u.u.u.h , * = , , , 2 a u.u.u.O u.u.u.u.u.u.u.u.u.u.u.u.u.u.u.u.u.u.u.u.u.u.u.",
"u.u.u.u.u.u.u.u.u.u.u.u.u.u.u.u.u.u.u.u.u.u.u.y s q q 1 * * * r d 7 O O O O u.u.u.u.u.u.u.u.u.u.u.u.u.u.u.u.u.u.u.u.u.u.",
"u.u.u.u.u.u.u.u.u.u.u.u.u.u.u.u.u.u.u.u.u.u.5 ; + s j u 2 9 3 U h . O O X O # 0 p u.u.u.u.u.u.u.u.u.u.u.u.u.u.u.u.u.u.u.",
"u.u.u.u.u.u.u.u.u.u.u.u.u.u.u.u.u.u.u.8 8 8 ; O O + + h Q Q W e O o O O O $ 1 r a u.u.u.u.u.u.u.u.u.u.u.u.u.u.u.u.u.u.u.",
"u.u.u.u.u.u.u.u.u.u.u.u.u.u.u.u.m m 8 # # # + O o O O - 0 0 0 + . @ & & & 1 r m m u.u.u.u.u.u.u.u.u.u.u.u.u.u.u.u.u.u.u.",
"u.u.u.u.u.u.u.u.u.u.u.u.u.u.u.u.9 w 1 $ O O X O o o o . . X @ $ $ & , , , 2 m m m u.u.u.u.u.u.u.u.u.u.u.u.u.u.u.u.u.u.u.",
"u.u.u.u.u.u.u.u.u.u.u.u.u.u.u.u.u., , , $ @ @ @ @ @ @ @ @ @ , , , , = * , r f a u.u.u.u.u.u.u.u._ _ ' Y u.u.u.u.u.u.u.u.",
"u.u.u.u.u.u.u.u.u.u.u.u.u.u.u.u.u.u., = > , , , , , , , , , , , * , 1 1 r z I u.u.u.u.u.u.u.u.u._ _ ! b u.u.u.u.u.u.u.u.",
"u.u.u.u.u.u.u.u.u.u.u.u.u.u.u.u.u.u.u., > , , , , , , , , > , , $ : j j l v I u.u.u.u.u.u.u.u.u._ ! b x u.u.u.u.u.u.u.u.",
"u.u.u.u.u.u.u.u.u.u.u.u.u.u.u.u.u.u.u.u.h h s u , , u D Z $ A ] n : E Q E Q Q u.u.u.u.u.u.u.u.u.E b x x u.u.u.u.u.u.u.u.",
"u.u.u.u.u.u.u.u.u.u.u.u.u.u.u.u.u.u.u.u.W T K g e e g | $.J 4.6.X.~ ' _ _ ' u.u.u.u.u.u.u.u.u.u.u.u.u.u.u.u.u.u.u.u.u.u.",
"u.u.u.u.u.u.u.u.u.u.u.u.u.u.u.u.u.u.u.u.' ` E I U I K ( 1.#.#.O.,.5.' _ _ u.u.u.u.u.u.u.u.u.u.u.u.u.u.u.u.u.u.u.u.u.u.u.",
"u.u.u.u.u.u.' u.u.u.u.u.u.u.u.u.u.u.u.u.u.' _ ) ! W W ! V @ @ X h Q W _ ' u.u.u.u.u.u.u.u.u.u.u.u.u.u.u.u.u.u.u.u.u.u.u.",
"u.u.u.u.u.u.u.u.u.u.u.u.u.u.u.u.u.u.u.u.u.u.u.u.2 2 9 2 1 * O X @ % - u.u.u.u.u.u.u.u.u.u.u.u.u.u.u.u.u.u.u.u.u.u.u.u.u.",
"u.u.u.u.u.u.u.u.u.u.u.u.u.u.u.u.u.u.u.u.u.u.= , = = , = , = O O X X O 5 5 u.u.u.u.u.u.u.u.u.u.u.u.u.u.u.u.u.u.u.u.u.u.u.",
"u.u.u.u.u.u.u.u.u.u.u.u.u.u.u.u.u.u.u.u.1 , , , , , , , , , + O O O + % 5 5 u.u.u.u.u.u.u.u.u.u.u.u.u.u.u.u.u.u.u.u.u.u.",
"u.u.u.u.u.u.u.u.u.u.u.u.u.u.u.u.u.u.m m , , , , , , , , , , @ O O O O O - 5 N  ...u.u.u.u.u.u.u.u.u.u.u.u.u.u.u.u.u.u.u.",
"u.u.u.u.u.u.u.u.u.u.u.u.u.u.u.u.u.p 3 , = , , , , , , , , , , @ O O O O O % 5 0 0  .7.7.u.u.u.u.u.u.u.u.u.u.u.u.u.u.u.u.",
"u.u.u.u.u.u.u.u.u.u.u.u.u.u.u.u.p 2 , , , , , , 3 , , , , > > @ O O + O O O % 8 0 { 2.8.e.u.u.u.u.u.u.u.u.u.u.u.u.u.u.u.",
"u.u.u.u.u.u.u.u.u.u.u.u.u.u.u.u.2 1 , , , , , , = , , , , 3 > @ O O O O O O O # 8 M } 9.e.u.u.u.u.u.u.u.u.u.u.u.u.u.u.u.",
"u.u.u.u.u.u.u.u.u.u.u.u.u.u.u.u., , , , , , , , , , , , , , > $ O O O O O O o O % : ] w.u.u.u.u.u.u.u.u.u.u.u.u.u.u.u.u.",
"u.u.u.u.u.u.u.u.u.u.u.u.u.u.u.u., , , , , , , , , = = = * * > @ X O O O O O O O O % ~ u.u.u.u.u.u.u.u.u.u.u.u.u.u.u.u.u.",
"u.u.u.u.u.u.u.u.u.u.u.u.u.u.u.u.3 = = , , , = , , 2 9 3 9 1 1 % + O X O O X O O O O u.u.u.u.u.u.u.u.u.u.u.u.u.u.u.u.u.u.",
"u.u.u.u.u.u.u.u.u.u.u.u.u.u.u.w.Z & = , , , , = 2 R ! ! ! E l j 5 O O O O @ O O O u.u.u.u.u.u.u.u.u.u.u.u.u.u.u.u.u.u.u.",
"u.u.u.u.u.u.u.u.u.u.u.u.u.u.u.e.3.S & = , & f U U _ ' _ _ ) v x g i t O H >.S .   u.u.u.u.u.u.u.u.u.u.u.u.u.u.u.u.u.u.u.",
"u.u.u.u.u.u.u.u.u.u.u.u.u.u.e.e.y.:.B & * Z / ` _ _ _ _ _ ) v l l G +.] 8.y.0.P P <.u.u.u.u.u.u.u.u.u.u.u.u.u.u.u.u.u.u.",
"u.u.u.u.u.u.u.u.u.u.u.u.u.u.e.e.e.q.=.B B o.*._ ' _ ' _ ' ! c j C %.e.t.e.e.e.t.r.e.e.u.u.u.u.u.u.u.u.u.u.u.u.u.u.u.u.u.",
"u.u.u.u.u.u.u.u.u.u.u.u.u.u.e.e.e.0.3.3.3.u.u.u.u.Q Q ! ! u.j V &.e.e.e.e.e.e.e.e.e.e.e.u.u.u.u.u.u.u.u.u.u.u.u.u.u.u.u.",
"u.u.u.u.u.u.u.u.u.u.u.u.u.u.e.e.e.0.3.3.3.u.u.u.u.2 2 < u.u.u.>.w.e.e.e.e.e.e.e.e.e.e.e.e.e.u.u.u.u.u.u.u.u.u.u.u.u.u.u.",
"u.u.u.u.u.u.u.u.u.u.u.u.u.u.u.e.e.w.0.3.u.u.u.u.u.* = @ u.u.u.8.t.e.e.e.e.e.e.e.e.e.e.e.e.e.u.u.u.u.u.u.u.u.u.u.u.u.u.u.",
"u.u.u.u.u.u.u.u.u.u.u.u.u.u.u.e.e.e.w.0.u.u.u.u.u.+ @ u.u.u.u.[ @.@.-.w.e.e.e.e.e.e.e.e.e.e.u.u.u.u.u.u.u.u.u.u.u.u.u.u.",
"u.u.u.u.u.u.u.u.u.u.u.u.u.u.u.e.e.e.e.e.u.u.u.u.u.u.u.u.u.u.u.u.u.u.u.0.e.e.e.e.e.e.e.e.e.e.u.u.u.u.u.u.u.u.u.u.u.u.u.u.",
"u.u.u.u.u.u.u.u.u.u.u.u.u.u.u.u.e.e.e.e.e.u.u.u.u.u.u.u.u.u.u.u.u.u.u.u.e.e.e.e.e.e.e.e.e.u.u.u.u.u.u.u.u.u.u.u.u.u.u.u.",
"u.u.u.u.u.u.u.u.u.u.u.u.u.u.u.u.u.u.u.e.e.u.u.u.u.u.u.u.u.u.u.u.u.u.q.e.e.e.e.e.e.e.e.u.u.u.u.u.u.u.u.u.u.u.u.u.u.u.u.u.",
"u.u.u.u.u.u.u.u.u.u.u.u.u.u.u.u.u.u.u.u.u.u.u.u.u.u.u.u.u.u.u.e.e.r.e.e.e.e.u.u.u.u.u.u.u.u.u.u.u.u.u.u.u.u.u.u.u.u.u.u.",
"u.u.u.u.u.u.u.u.u.u.u.u.u.u.u.u.u.u.u.u.u.u.u.u.u.u.u.u.u.u.u.u.e.e.u.u.e.u.u.u.u.u.u.u.u.u.u.u.u.u.u.u.u.u.u.u.u.u.u.u.",
"u.u.u.u.u.u.u.u.u.u.u.u.u.u.u.u.u.u.u.u.u.u.u.u.u.u.u.u.u.u.u.u.u.u.u.u.u.u.u.u.u.u.u.u.u.u.u.u.u.u.u.u.u.u.u.u.u.u.u.u.",
"u.u.u.u.u.u.u.u.u.u.u.u.u.u.u.u.u.u.u.u.u.u.u.u.u.u.u.u.u.u.u.u.u.u.u.u.u.u.u.u.u.u.u.u.u.u.u.u.u.u.u.u.u.u.u.u.u.u.u.u."
};
