/* XPM */
static char *witch4[] = {
/* columns rows colors chars-per-pixel */
"60 60 124 2 ",
"   c #261E2E",
".  c #251E30",
"X  c #272030",
"o  c #292333",
"O  c #2E2837",
"+  c #2E2739",
"@  c #2C2A3A",
"#  c #322A3E",
"$  c #2C303E",
"%  c #342E43",
"&  c #392E47",
"*  c #3A2F48",
"=  c #2D3140",
"-  c #2F3946",
";  c #303645",
":  c #393146",
">  c #37364D",
",  c #3B324A",
"<  c #303D4A",
"1  c #3B394E",
"2  c #3D3D53",
"3  c #2F444E",
"4  c #31424E",
"5  c #334652",
"6  c #3C4255",
"7  c #344A56",
"8  c #334C59",
"9  c #3D4C5D",
"0  c #2E565C",
"q  c #325159",
"w  c #3F4F60",
"e  c #3F5061",
"r  c #365C64",
"t  c #3C5B65",
"y  c #3D5D69",
"u  c #336367",
"i  c #37656A",
"p  c #356D6F",
"a  c #366F70",
"s  c #3A6C71",
"d  c #377172",
"f  c #397476",
"g  c #3B7779",
"h  c #3B7B7C",
"j  c #4B4357",
"k  c #524D57",
"l  c #534D5B",
"z  c #404F61",
"x  c #574F62",
"c  c #405162",
"v  c #415B6A",
"b  c #5C5565",
"n  c #5F5B62",
"m  c #605C63",
"M  c #615B68",
"N  c #436270",
"B  c #436E7A",
"V  c #5D6370",
"C  c #45767E",
"Z  c #407B7B",
"A  c #68656C",
"S  c #746967",
"D  c #747E7A",
"F  c #85807F",
"G  c #95877E",
"H  c #3D7F80",
"J  c #417B80",
"K  c #3E8283",
"L  c #49858C",
"P  c #438A8B",
"I  c #4A8B91",
"U  c #469192",
"Y  c #4A9497",
"T  c #4C9699",
"R  c #4B9A9C",
"E  c #739794",
"W  c #7DA69D",
"Q  c #4C9FA0",
"!  c #4FA4A5",
"~  c #4FA7A8",
"^  c #51A2A3",
"/  c #50A7A8",
"(  c #51A8A8",
")  c #6BAFAD",
"_  c #74B2B0",
"`  c #78B3B1",
"'  c #848986",
"]  c #8D8D86",
"[  c #828B8E",
"{  c #949092",
"}  c #9D9B9A",
"|  c #AF9E92",
" . c #B09E91",
".. c #83A49F",
"X. c #89A49F",
"o. c #B3A294",
"O. c #BDAE9F",
"+. c #80A4A0",
"@. c #88A6A1",
"#. c #89A8A2",
"$. c #91ABA5",
"%. c #82B8B4",
"&. c #A3A0A1",
"*. c #ACABA6",
"=. c #A9A9A8",
"-. c #B0AFA9",
";. c #BCB7A6",
":. c #BEBFAD",
">. c #BEBEB5",
",. c #C4B29D",
"<. c #A0C2B5",
"1. c #ADC4BE",
"2. c #D0C3AE",
"3. c #C3C3B9",
"4. c #C9C9BF",
"5. c #CDCDC2",
"6. c #CFD2C8",
"7. c #D1D1C6",
"8. c #D4D5CB",
"9. c #D7D8CD",
"0. c #D9D9CE",
"q. c #DDDCD1",
"w. c #E0DDD2",
"e. c None",
/* pixels */
"e.e.e.e.e.e.e.e.e.e.e.e.e.e.e.e.e.e.e.e.e.e.e.e.e.e.e.e.e.e.e.e.e.e.e.e.e.e.e.e.e.e.e.e.e.e.e.e.e.e.e.e.e.e.e.e.e.e.e.e.",
"e.e.e.e.e.e.e.e.e.e.e.e.e.e.e.e.e.e.e.e.e.e.e.! ! e.e.e.e.e.e.e.e.e.e.e.e.e.e.e.e.e.e.e.e.e.e.e.e.e.e.e.e.e.e.e.e.e.e.e.",
"e.e.e.e.e.e.e.e.e.e.e.e.e.e.e.e.e.e.e.e.e.e.! ! ! h e.e.e.e.e.e.e.e.e.e.e.e.e.e.e.e.e.e.e.e.e.e.e.e.e.e.e.e.e.e.e.e.e.e.",
"e.e.e.e.e.e.e.e.e.e.e.e.e.e.e.e.e.e.e.e.e.! ! ! U f e.e.e.e.e.e.e.e.e.e.e.e.e.e.e.e.e.e.e.e.e.e.e.e.e.e.e.e.e.e.e.e.e.e.",
"e.e.e.e.e.e.e.e.e.e.e.e.e.e.e.e.e.e.e.e.e.! ! U d d e.e.e.e.e.e.e.e.e.e.e.e.e.e.e.e.e.e.e.e.e.e.e.e.e.e.e.e.e.e.e.e.e.e.",
"e.e.e.e.e.e.e.e.e.e.e.e.e.e.e.e.e.e.e.e.e.e.h f d e.e.e.e.e.e.e.e.e.e.e.e.e.! ! ! e.e.e.e.e.e.e.e.e.e.e.e.e.e.e.e.e.e.e.",
"e.e.e.e.e.e.e.e.e.e.e.e.e.e.e.e.e.e.e.e.e.e.e.e.e.e.e.e.e.e.e.e.e.e.e.e.e.! ! ! ! K e.e.e.e.e.e.e.e.e.e.e.e.e.e.e.e.e.e.",
"e.e.e.e.e.e.e.e.e.e.e.e.e.e.e.e.e.e.e.e.e.e.e.e.e.e.e.e.e.e.e.e.e.e.e.e.^ ! ! ! ! K e.e.e.e.e.e.e.e.e.e.e.e.e.e.e.e.e.e.",
"e.e.e.e.e.e.e.e.e.e.e.e.e.e.e.e.e.e.e.e.e.e.e.e.e.e.e.e.e.e.e.e.e.e.e.e.! ! ~ ! Y h e.e.e.e.e.e.e.e.e.e.e.e.e.e.e.e.e.e.",
"e.e.e.e.e.e.e.e.e.e.e.e.e.e.e.e.e.e.e.e.e.e.e.e.e.e.e.e.e.e.e.e.e.e.e.e.! ! R R f d e.e.e.e.e.e.e.e.e.e.e.e.e.e.e.e.e.e.",
"e.e.e.e.e.e.e.e.e.e.e.e.e.e.e.e.e.e.e.e.e.e.e.e.e.e.e.e.e.e.e.e.e.e.e.e.e.h f f d e.e.e.e.e.e.e.e.e.e.e.e.e.e.e.e.e.e.e.",
"e.e.e.e.e.e.e.e.e.e.e.e.e.e.e.e.e.e.e.e.e.e.e.e.e.e.e.e.e.e.e.e.e.e.e.e.e.e.e.e.e.e.e.e.e.e.e.e.e.e.e.e.e.e.e.e.e.e.e.e.",
"e.e.e.e.e.e.e.e.e.e.e.! e.e.e.e.e.e.e.e.e.e.e.e.e.e.e.e.e.e.e.e.e.e.e.e.e.e.e.e.e.e.e.e.e.e.e.e.e.e.e.e.e.e.e.e.e.e.e.e.",
"e.e.e.e.e.e.e.e.! ! ^ ! R e.e.e.e.e.e.e.e.e.e.e.e.e.e.e.e.e.e.e.e.e.e.e.e.e.e.e.e.e.e.e.e.e.e.e.e.e.e.e.e.e.e.e.e.e.e.e.",
"e.e.e.e.e.e.e.e.! ! ! ~ P p e.e.e.e.e.e.e.e.e.e.e.e.e.e.e.e.e.e.e.e.e.e.e.e.e.e.e.e.e.e.e.e.e.e.e.e.e.e.e.e.e.e.e.e.e.e.",
"e.e.e.e.e.e.e.e.^ ! ! ! P p e.e.e.e.e.e.e.e.e.e.e.e.e.e.e.e.e.e.e.c e.e.e.e.e.e.e.e.e.e.e.e.e.e.e.e.e.e.e.e.e.e.e.e.e.e.",
"e.e.e.e.e.e.e.e.! ! ! P f d e.e.e.e.e.e.e.e.e.e.e.e.e.e.e.e.c c c c e.e.e.e.e.e.e.e.e.e.e.e.e.e.e.e.e.e.e.e.e.e.e.e.e.e.",
"e.e.e.e.e.e.e.e.R P P f p e.e.e.e.e.e.e.e.e.e.e.e.e.e.e.e.c c c c c e.e.e.e.e.e.e.e.e.e.e.e.e.e.e.e.e.e.e.e.e.e.e.e.e.e.",
"e.e.e.e.e.e.e.e.e.p p d e.e.e.e.e.e.e.e.e.e.e.e.e.e.e.e.e w c 9 6 5 e.e.e.e.e.e.e.e.e.e.e.e.e.e.e.e.e.e.e.e.e.e.e.e.e.e.",
"e.e.e.e.e.e.e.e.e.e.e.e.e.e.e.e.e.e.e.e.e.e.e.e.e.e.e.e.e t j 1 # o e.e.e.e.e.e.e.e.e.e.e.e.e.e.e.e.e.e.e.e.e.e.e.e.e.e.",
"e.e.e.e.e.e.e.e.e.e.e.e.e.e.e.e.e.e.e.e.e.e.e.e.e.e.e.w e 9 > + o e.e.e.e.e.e.e.e.e.e.e.e.e.e.e.e.e.e.e.e.e.e.e.e.e.e.e.",
"e.e.e.e.e.e.e.e.e.e.e.e.e.e.e.e.e.e.e.e.e.e.e.e.e.e.e.t w 2 , + e.e.e.e.e.e.e.e.e.e.e.e.e.e.e.e.e.e.e.e.e.e.e.e.e.e.e.e.",
"e.e.e.e.e.e.e.e.e.e.e.e.e.e.e.e.e.e.e.e.e.e.e.e.e.v z j 2 * , + 3 e.e.e.5 e.e.e.e.e.e.e.e.e.e.e.e.e.e.e.e.e.e.e.e.e.e.e.",
"e.e.e.e.e.e.e.e.e.e.e.e.e.e.e.e.e.e.e.e.e.e.e.e.s t t 2 & * & ; q r < 5 5 5 e.e.e.e.e.e.e.e.e.e.e.e.e.e.e.e.e.e.e.e.e.e.",
"e.e.e.e.e.e.e.e.e.e.e.e.e.e.e.e.e.e.e.e.e.5 5 5 7 u f t 2 2 2 t 3 X o < 4 5 7 z e.e.e.e.e.e.e.e.e.e.e.e.e.e.e.e.e.e.e.e.",
"e.e.e.e.e.e.e.e.e.e.e.e.e.e.e.e.e.e.5 5 5 5 5 5 < = J Q T T Y 7 o o o @ o # , 2 9 e.e.e.e.e.e.e.e.e.e.e.e.e.e.e.e.e.e.e.",
"e.e.e.e.e.e.e.e.e.e.e.e.e.e.e.e.e.9 5 5 5 5 - @ @ o < 8 7 7 7 @   o o o # & , , c e.e.e.e.e.e.e.( ! e.e.e.e.e.e.e.e.e.e.",
"e.e.e.e.e.e.e.e.e.e.e.e.e.e.e.e.c 9 8 8 5 - @   o o .         o + # # # : , > 6 j e.e.e.e.e.e.! ! e.e.e.e.e.e.e.e.e.e.e.",
"e.e.e.e.e.e.e.e.e.e.e.e.e.e.e.e.e.c c c 7 % + + + + + + + + + + % , , , * , 1 c e.e.e.e.e.e.^ ! e.e.e.e.e.e.e.e.e.e.e.e.",
"e.e.e.e.e.e.e.e.e.e.e.e.e.e.e.e.e.e.c e c 2 , : , , , , , , , , , , , > 1 1 2 e.e.e.e.e.e.e.( e.e.e.e.d d e.e.e.e.e.e.e.",
"e.e.e.e.e.e.e.e.e.e.e.e.e.e.e.e.e.e.e.e.c z 2 , , , , , , , , , > , 1 u p s h e.e.e.e.e.e.e.e.e.e.e.e.d d e.e.e.e.e.e.e.",
"e.e.e.e.e.e.e.e.e.e.e.e.e.e.e.e.e.e.e.e.s s t 2 , , & M A # S F k = t d P R Q e.e.e.e.e.e.e.e.e.e.e.d e.e.e.e.e.e.e.e.e.",
"e.e.e.e.e.e.e.! e.e.e.e.e.e.e.e.e.e.e.e.U h i y 8 8 8 ' ,.G ,.2. .D P P Q ( e.e.e.e.e.e.e.e.e.e.e.e.e.e.e.e.e.e.e.e.e.e.",
"e.e.e.e.e.e.! ! ! e.e.e.e.e.e.e.e.e.e.e.! P H K P K K W 1.o. . .,.<.( ^ ! e.e.e.e.e.e.e.e.e.e.e.e.e.e.e.e.e.e.e.e.e.e.e.",
"e.e.e.e.e.! ! ! P d e.e.e.e.e.e.e.e.e.e.e.! Q R R T T R C + +   y R T e.e.e.e.e.e.e.e.e.e.e.e.e.e.e.e.e.e.e.e.e.e.e.e.e.",
"e.e.e.e.e.! ! P f d e.e.e.e.e.e.e.e.e.e.e.e.N v v 6 2 2 1 & o o @ = = e.e.e.e.e.e.e.e.e.e.e.e.e.e.e.e.e.e.e.e.e.e.e.e.e.",
"e.e.e.e.e.e.K g d e.e.e.e.e.e.e.e.e.e.z w w w w z * * * * , o o X X X o o o o e.e.e.e.e.e.e.e.e.e.e.e.e.e.e.e.e.e.e.e.e.",
"e.e.e.e.e.e.e.d e.e.e.e.e.e.e.e.e.e.v w c c c z 2 , , , , * o o o o o o o o @ 5 e.e.e.e.e.e.e.e.e.e.e.e.e.e.e.e.e.e.e.e.",
"e.e.e.e.e.e.e.e.e.e.e.e.e.e.e.e.e.e e e c 9 9 2 , , , , , , + + o o o o o o @ - < 4 e.e.e.e.e.e.e.e.e.e.e.e.e.e.e.e.e.e.",
"e.e.e.e.e.e.e.e.e.e.e.e.e.e.e.e.e e e e j 2 , , , , , , , , , + o o o o o o o o o - e.e.e.e.e.e.e.e.e.e.e.e.e.e.e.e.e.e.",
"e.e.e.e.e.e.e.e.e.e.e.e.e.e.e.e.e e e 9 1 * , , , , , , , , * + o o o o o o o o o o e.e.e.e.e.e.e.e.e.e.e.e.e.e.e.e.e.e.",
"e.e.e.e.e.e.e.e.e.e.e.e.e.e.e.e.w w w 2 , * , , , , , , , , * + o o o o o o o o o X e.e.e.e.e.e.e.e.e.e.e.e.e.e.e.e.e.e.",
"e.e.e.e.e.e.e.e.e.e.e.e.e.e.e.e.[ V > , , , , , , , , , , , * + o o o o o o o o . n e.e.e.e.e.e.e.e.e.e.e.e.e.e.e.e.e.e.",
"e.e.e.e.e.e.e.e.e.e.e.e.e.e.e.e.3.{ l * * , , , , , * * * * & + o o o o o o o O k } e.e.e.e.e.e.e.e.e.e.e.e.e.e.e.e.e.e.",
"e.e.e.e.e.e.e.e.e.e.e.e.e.e.e.>.>.3.} j j 1 , , , 2 2 2 2 2 1 = o o o o o o X : *.e.e.e.e.e.e.e.e.e.e.e.e.e.e.e.e.e.e.e.",
"e.e.e.e.e.e.e.e.e.e.e.e.e.e.e.>.>.>.>.=.=.b & * j I R Q R U a a 3 o o o o o e.e.e.e.e.e.e.e.e.e.e.e.e.e.e.e.e.e.e.e.e.e.",
"e.e.e.e.e.e.e.e.e.e.e.e.e.e.e.7.3.>.>.3.e.e.B L L ! ! ! ~ Q f p u 0 0 e.e.e.e.e.e.e.e.e.e.e.e.e.e.e.e.e.e.e.e.e.e.e.e.e.",
"e.e.e.e.e.e.e.e.e.e.e.e.e.e.e.e.5.5.5.e.e.e.e.~ ~ ! ! Q ! ! W @.X.#...h e.e.e.e.e.e.e.e.e.e.e.e.e.e.e.e.e.e.e.e.e.e.e.e.",
"e.e.e.e.e.e.e.e.e.e.e.e.e.e.e.e.0.0.0.e.e.e.e.^ ^ ^ ) ` _ %.6.q.q.w.6.E $.e.e.e.e.e.e.e.e.e.e.e.e.e.e.e.e.e.e.e.e.e.e.e.",
"e.e.e.e.e.e.e.e.e.e.e.e.e.e.e.e.0.0.0.e.e.e.e.e.e.T 1.q.0.0.0.0.0.0.0.9.9.0.e.e.e.e.e.e.e.e.e.e.e.e.e.e.e.e.e.e.e.e.e.e.",
"e.e.e.e.e.e.e.e.e.e.e.e.e.e.e.e.e.0.0.e.e.e.e.e.e.6 =.q.0.0.0.0.0.0.0.0.0.0.0.e.e.e.e.e.e.e.e.e.e.e.e.e.e.e.e.e.e.e.e.e.",
"e.e.e.e.e.e.e.e.e.e.e.e.e.e.e.e.e.e.e.e.e.e.e.e.e.& x &.q.q.0.0.0.0.0.0.0.0.0.0.0.e.e.e.e.e.e.e.e.e.e.e.e.e.e.e.e.e.e.e.",
"e.e.e.e.e.e.e.e.e.e.e.e.e.e.e.e.e.e.e.e.e.e.e.e.e.o . m >.0.0.0.0.0.0.0.0.0.0.0.0.e.e.e.e.e.e.e.e.e.e.e.e.e.e.e.e.e.e.e.",
"e.e.e.e.e.e.e.e.e.e.e.e.e.e.e.e.e.e.e.e.q.q.e.e.e.e.e.e.e.0.0.0.0.0.0.0.0.0.0.0.0.e.e.e.e.e.e.e.e.e.e.e.e.e.e.e.e.e.e.e.",
"e.e.e.e.e.e.e.e.e.e.e.e.e.e.e.e.e.e.e.0.0.0.q.e.e.e.e.e.] 9.0.0.0.0.0.0.0.0.0.0.0.e.e.e.e.e.e.e.e.e.e.e.e.e.e.e.e.e.e.e.",
"e.e.e.e.e.e.e.e.e.e.e.e.e.e.e.e.e.e.e.e.0.0.0.8.e.e.5.7.7.9.0.0.0.0.0.0.0.0.0.0.e.e.e.e.e.e.e.e.e.e.e.e.e.e.e.e.e.e.e.e.",
"e.e.e.e.e.e.e.e.e.e.e.e.e.e.e.e.e.e.e.e.e.e.e.e.e.0.q.0.0.0.0.0.0.0.0.0.e.e.e.e.e.e.e.e.e.e.e.e.e.e.e.e.e.e.e.e.e.e.e.e.",
"e.e.e.e.e.e.e.e.e.e.e.e.e.e.e.e.e.e.e.e.e.e.e.e.e.e.0.e.e.e.e.e.e.e.e.e.e.e.e.e.e.e.e.e.e.e.e.e.e.e.e.e.e.e.e.e.e.e.e.e.",
"e.e.e.e.e.e.e.e.e.e.e.e.e.e.e.e.e.e.e.e.e.e.e.e.e.e.e.e.e.e.e.e.e.e.e.e.e.e.e.e.e.e.e.e.e.e.e.e.e.e.e.e.e.e.e.e.e.e.e.e.",
"e.e.e.e.e.e.e.e.e.e.e.e.e.e.e.e.e.e.e.e.e.e.e.e.e.e.e.e.e.e.e.e.e.e.e.e.e.e.e.e.e.e.e.e.e.e.e.e.e.e.e.e.e.e.e.e.e.e.e.e."
};
