/* XPM */
static char *witch1[] = {
/* columns rows colors chars-per-pixel */
"60 60 120 2 ",
"   c #1A1323",
".  c #241E2F",
"X  c #241F30",
"o  c #281F30",
"O  c #272332",
"+  c #292333",
"@  c #272837",
"#  c #292937",
"$  c #2E2739",
"%  c #262E3D",
"&  c #2B2B3A",
"*  c #30263A",
"=  c #31293D",
"-  c #2B323F",
";  c #362E44",
":  c #392E47",
">  c #3A2F48",
",  c #2C3442",
"<  c #2F3B48",
"1  c #343447",
"2  c #383047",
"3  c #3B324A",
"4  c #3B394E",
"5  c #3C3D53",
"6  c #40374D",
"7  c #433B50",
"8  c #31414E",
"9  c #38424E",
"0  c #2F4B52",
"q  c #334456",
"w  c #3C4356",
"e  c #334B55",
"r  c #394857",
"t  c #3E4559",
"y  c #364F5A",
"u  c #3C4B5C",
"i  c #31535A",
"p  c #39535F",
"a  c #33585E",
"s  c #3F4F60",
"d  c #3F5061",
"f  c #365C64",
"g  c #3B5D66",
"h  c #3E5768",
"j  c #3A646A",
"k  c #36696D",
"l  c #3A6D6F",
"z  c #367575",
"x  c #484055",
"c  c #544F58",
"v  c #55525A",
"b  c #405162",
"n  c #575061",
"m  c #5D5766",
"M  c #515A62",
"N  c #595C63",
"B  c #625D63",
"V  c #59676D",
"C  c #416A76",
"Z  c #45767E",
"A  c #4B7D7D",
"S  c #5F7176",
"D  c #69636C",
"F  c #6E6C6E",
"G  c #756967",
"H  c #6A6470",
"J  c #76717A",
"K  c #7F7C7E",
"L  c #95877E",
"P  c #477E86",
"I  c #3E8B8B",
"U  c #428C8C",
"Y  c #4C8B90",
"T  c #479596",
"R  c #4A9497",
"E  c #4C969A",
"W  c #4C9A9C",
"Q  c #7A8486",
"!  c #679B9D",
"~  c #4FA4A5",
"^  c #51A6A7",
"/  c #50A7A8",
"(  c #6EB4B2",
")  c #7ABAB6",
"_  c #868686",
"`  c #818B8B",
"'  c #8F9694",
"]  c #979495",
"[  c #989696",
"{  c #9C9A91",
"}  c #B09E91",
"|  c #8AA89E",
" . c #B2A195",
".. c #BDAC9D",
"X. c #86B8AF",
"o. c #A8A6A3",
"O. c #ACABA4",
"+. c #ACABA9",
"@. c #B0AFAA",
"#. c #BCB6A5",
"$. c #B2B1AB",
"%. c #BDBEAC",
"&. c #B9B7B1",
"*. c #BEBEB5",
"=. c #C4B29D",
"-. c #A0C1B4",
";. c #AFC6BF",
":. c #CDC0AC",
">. c #C0C0B7",
",. c #C3C3BA",
"<. c #C9C9BF",
"1. c #C6CBC2",
"2. c #CCCCC2",
"3. c #D1D1C7",
"4. c #D5D5CA",
"5. c #D7D8CD",
"6. c #D9D9CE",
"7. c #DEDED2",
"8. c #E0E0D4",
"9. c None",
/* pixels */
"9.9.9.9.9.9.9.9.9.9.9.9.9.9.9.9.9.9.9.9.9.9.9.9.9.9.9.9.9.9.9.9.9.9.9.9.9.9.9.9.9.9.9.9.9.9.9.9.9.9.9.9.9.9.9.9.9.9.9.9.",
"9.9.9.9.9.9.9.9.9.9.9.9.9.9.9.9.9.9.9.9.9.9.9.9.9.9.9.9.9.9.9.9.9.9.9.9.9.9.9.9.9.9.9.9.9.9.9.9.9.9.9.9.9.9.9.9.9.9.9.9.",
"9.9.9.9.9.9.9.9.9.9.9.9.9.9.9.9.9.9.9.9.9.9.9.9.9.9.9.9.9.9.9.9.9.9.9.9.9.9.9.9.9.9.9.9.9.9.9.9.9.9.9.9.9.9.9.9.9.9.9.9.",
"9.9.9.9.9.9.9.9.9.9.9.9.9.9.9.9.9.9.9.9.9.9.9.9.9.9.9.9.9.9.9.9.9.9.9.9.9.9.9.9.9.9.9.9.9.9.9.9.9.9.9.9.9.9.9.9.9.9.9.9.",
"9.9.9.9.9.9.9.9.9.9.9.9.9.9.9.9.9.9.9.9.9.9.9.9.9.9.9.9.9.9.9.9.9.9.9.9.9.9.9.9.9.9.9.9.9.9.9.9.9.9.9.9.9.9.9.9.9.9.9.9.",
"9.9.9.9.9.9.9.9.9.9.9.9.9.9.9.9.9.9.9.9.9.9.9.9.9.9.9.9.9.9.9.9.9.9.9.9.9.9.9.9.9.9.9.9.9.9.9.9.9.9.9.9.9.9.9.9.9.9.9.9.",
"9.9.9.9.9.9.9.9.9.9.9.9.9.9.9.9.9.9.9.9.9.9.9.9.9.9.9.9.9.9.9.9.9.9.9.9.9.9.9.9.9.9.9.9.9.9.9.9.9.9.9.9.9.9.9.9.9.9.9.9.",
"9.9.9.9.9.9.9.9.9.9.9.9.9.9.9.9.9.9.9.9.9.9.9.9.9.9.9.9.9.9.9.9.9.9.9.9.9.9.9.9.9.9.9.9.9.9.9.9.9.9.9.9.9.9.9.9.9.9.9.9.",
"9.9.9.9.9.9.9.9.9.9.9.9.9.9.9.9.9.9.9.9.9.9.9.9.9.9.9.9.9.9.9.9.9.9.9.9.9.9.9.9.9.9.9.9.9.9.9.9.9.9.9.9.9.9.9.9.9.9.9.9.",
"9.9.9.9.9.9.9.9.9.9.9.9.9.9.9.9.9.9.9.9.9.9.9.9.9.9.9.9.9.9.9.9.9.9.9.9.9.9.^ 9.9.9.9.9.9.9.9.9.9.9.9.9.9.9.9.9.9.9.9.9.",
"9.9.9.9.9.9.9.9.9.9.9.9.9.9.9.9.9.9.9.9.9.9.9.9.9.9.9.9.9.9.9.9.9.9.9.9.9.9.9.9.9.9.9.9.9.9.9.9.9.9.9.9.9.9.9.9.9.9.9.9.",
"9.9.9.9.9.9.9.9.9.9.9.9.9.9.9.9.9.9.9.9.9.9.9.9.9.9.3 9.9.9.9.9.9.9.9.9.9.9.9.9.9.9.9.9.9.9.9.9.9.9.9.9.9.9.9.9.9.9.9.9.",
"9.9.9.9.9.9.9.9.9.9.9.9.9.9.9.9.9.9.9.9.9.9.9.9.9.9.3 3 9.9.9.9.9.9.9.9.9.9.9.9.9.9.9.9.9.9.9.9.9.9.9.9.9.9.9.9.9.9.9.9.",
"9.9.9.9.9.9.9.9.9.9.9.9.9.9.9.9.9.9.9.9.9.9.9.9.9.9.> 5 9.9.9.9.9.9.9.9.9.9.9.9.9.9.9.9.9.9.9.9.9.9.9.9.9.9.9.9.9.9.9.9.",
"9.9.9.9.9.9.9.9.9.9.~ 9.9.9.9.9.9.9.9.9.9.9.9.9.9.9.> 5 s 9.9.9.9.9.9.9.9.9.9.9.9.9.9.9.9.9.9.9.9.9.9.9.9.9.9.9.9.9.9.9.",
"9.9.9.9.9.9.9.9.9.9.9.9.9.9.9.9.9.9.9.9.9.9.9.9.9.9.3 3 4 9.9.9.9.9.9.9.9.9.9.9.9.9.9.9.9.9.9.9.9.9.9.9.9.9.9.9.9.9.9.9.",
"9.9.9.9.9.9.9.9.9.9.9.9.9.9.9.9.9.9.9.9.9.9.9.9.9.9.3 3 4 s 9.9.9.9.9.9.9.9.9.9.9.9.9.9.9.9.9.9.9.9.9.9.9.9.9.9.9.9.9.9.",
"9.9.9.9.9.9.9.9.9.9.9.9.9.9.9.9.9.9.9.9.9.9.9.9.9.9.3 3 4 w s 9.9.9.9.9.9.9.9.9.9.9.9.9.9.9.9.9.9.9.9.9.9.9.9.9.9.9.9.9.",
"9.9.9.9.9.9.9.9.9.9.9.9.9.9.9.9.9.9.9.9.9.9.9.9.9.9.5 3 3 3 t 9.9.9.9.9.9.9.9.9.9.9.9.9.9.9.9.9.9.9.9.9.9.9.9.9.9.9.9.9.",
"9.9.9.9.9.9.9.9.9.9.9.9.9.9.9.9.9.9.9.9.9.9.9.9.9.x 5 2 3 3 3 9.9.9.9.9.9.9.9.9.9.9.9.9.9.9.9.9.9.9.9.9.9.9.9.9.9.9.9.9.",
"9.9.9.9.9.9.9.9.9.9.9.9.9.9.9.9.9.9.9.9.9.9.9.9.9.3 3 3 3 3 3 9.9.9.9.9.9.9.9.9.9.9.9.9.9.9.9.9.9.9.9.9.9.9.9.9.9.9.9.9.",
"9.9.9.9.9.9.9.9.9.9.9.9.9.9.9.9.9.9.9.9.9.9.9.9.9.3 3 3 3 3 3 3 9.9.9.9.9.9.9.9.9.9.9.9.9.9.9.9.9.9.9.9.9.9.9.9.9.9.9.9.",
"9.9.9.9.9.9.9.9.9.9.9.9.9.9.9.9.9.9.9.9.9.9.9.9.k 3 > > 3 3 3 > e 9.9.9.9.9.9.9.9.9.9.9.9.9.9.9.9.9.9.9.9.9.9.9.9.9.9.9.",
"9.9.9.9.9.9.9.9.9.9.9.9.9.9.9.9.9.9.9.9.9.9.9.9.a r w 5 > > > u g e + + + + + $ u 9.9.9.9.9.9.9.9.9.9.9.9.9.9.9.9.9.9.9.",
"9.9.9.9.9.9.9.9.9.9.9.9.9.9.9.9.9.9.9.9.9.8 , o & j k p 7 5 w P g o o + O + + & u 9.9.9.9.9.9.9.9.9.9.9.9.9.9.9.9.9.9.9.",
"9.9.9.9.9.9.9.9.9.9.9.9.9.9.9.9.b u < + + # + + O # # j W E R y $ o + + + = 4 u b 9.9.9.9.9.9.9.9.9.9.9.9.9.9.9.9.9.9.9.",
"9.9.9.9.9.9.9.9.9.9.9.9.9.9.9.9.5 1 # + + O O + O o . , e e e $ $ ; ; ; ; 2 5 b 9.9.9.9.9.9.9.9.9.9.9.9.9.9.9.9.9.9.9.9.",
"9.9.9.9.9.9.9.9.9.9.9.9.9.9.9.9.9.; $ O + + O o + = = = * * * = ; 3 3 3 2 4 t 9.9.9.9.9.9.9.9.9.9.9.9.9.9.9.9.9.9.9.9.9.",
"9.9.9.9.9.9.9.9.9.9.9.9.9.9.9.9.9.9.; $ $ $ $ $ $ 3 3 3 3 3 3 3 3 3 3 3 3 5 9.9.9.9.9.9.9.9.9.9.9.9.9.9.9.9.9.9.9.9.9.9.",
"9.9.9.9.9.9.9.9.9.9.9.9.9.9.9.9.9.9.9.3 3 3 3 3 3 3 3 3 3 > 3 7 4 2 4 4 4 4 9.9.9.9.9.9.9.9.9.9.9.9.~ 9.9.9.9.9.9.9.9.9.",
"9.9.9.9.9.9.9.9.9.9.9.9.9.9.9.9.9.9.9.9.3 3 3 3 3 3 3 3 3 3 3 K B , k k k 9.9.9.9.9.9.9.9.9.9.9.9.~ ^ ^ 9.9.9.9.9.9.9.9.",
"9.9.9.9.9.9.9.9.9.9.9.9.9.9.9.9.9.9.9.9.9.f g f f f f S D = G { D q T E T 9.9.9.9.9.9.9.9.9.9.9.9.9.^ ^ 9.9.9.9.9.9.9.9.",
"9.9.9.9.9.9.9.9.9.9.9.9.9.9.9.9.9.9.9.9.9.U U U U U I | =.L =.:.} ` / / ~ 9.9.9.9.9.9.9.9.9.9.9.9.9.9.9.9.9.9.9.9.9.9.9.",
"9.9.9.9.9.9.9.9.9.9.9.9.9.9.9.9.9.9.9.9.9.9.~ ^ ^ / ~ X.%. .} } #.-./ ~ ~ 9.9.9.9.9.9.9.9.9.9.9.9.9.9.9.9.9.9.9.9.9.9.9.",
"9.9.9.9.9.9.9.9.9.9.9.9.9.9.9.9.9.9.9.9.9.9.9.~ E E E W Z # + + g E E ~ 9.9.9.9.9.9.9.9.9.9.9.9.9.9.9.9.9.9.9.9.9.9.9.9.",
"9.9.9.9.9.9.9.9.9.9.9.9.9.9.9.9.9.9.9.9.9.9.9.9.w 5 5 w 4 > + . $ - , 9.9.9.9.9.9.9.9.9.9.9.9.9.9.9.9.9.9.9.9.9.9.9.9.9.",
"9.9.9.9.9.9.9.9.9.9.9.9.9.9.9.9.9.9.9.9.9.9.9.> > > 3 > > 3 $ + + o + 9.9.9.9.9.9.9.9.9.9.9.9.9.9.9.9.9.9.9.9.9.9.9.9.9.",
"9.9.9.9.9.9.9.9.9.9.9.9.9.9.9.9.9.9.9.9.9.9.H 2 3 3 3 3 3 > + o + + + + 9.9.9.9.9.9.9.9.9.9.9.9.9.9.9.9.9.9.9.9.9.9.9.9.",
"9.9.9.9.9.9.9.9.9.9.9.9.9.9.9.9.9.9.*.*.,.o.H > 3 3 3 3 3 2 $ O + + + + 9.9.9.9.9.9.9.9.9.9.9.9.9.9.9.9.9.9.9.9.9.9.9.9.",
"9.9.9.9.9.9.9.9.9.9.9.9.9.9.9.9.9.>.*.*.+.m ; 3 3 3 3 3 3 2 $ + + + + + _ *.*.9.9.9.9.9.9.9.9.9.9.9.9.9.9.9.9.9.9.9.9.9.",
"9.9.9.9.9.9.9.9.9.9.9.9.9.9.9.9.6.2.*.@.n 3 3 3 3 3 3 3 3 3 2 $ O + + + 9 _ ,.*.*.9.9.9.9.9.9.9.9.9.9.9.9.9.9.9.9.9.9.9.",
"9.9.9.9.9.9.9.9.9.9.9.9.9.9.9.6.7.2.,.@.x > 3 3 3 3 3 3 2 3 3 $ + + + + , _ ,.*.*.*.*.>.9.9.9.9.9.9.9.9.9.9.9.9.9.9.9.9.",
"9.9.9.9.9.9.9.9.9.9.9.9.9.9.9.6.6.2.O.J 7 > 3 3 3 3 3 3 3 3 3 $ + + + + % M ] ;.2.2.<.*.9.9.9.9.9.9.9.9.9.9.9.9.9.9.9.9.",
"9.9.9.9.9.9.9.9.9.9.9.9.9.9.9.6.4.2.] 3 3 3 3 3 3 3 3 3 3 3 2 $ + + + + O % V *.4.6.2.,.*.9.9.9.9.9.9.9.9.9.9.9.9.9.9.9.",
"9.9.9.9.9.9.9.9.9.9.9.9.9.9.6.6.<.,.] 3 3 3 3 3 6 3 3 3 3 3 3 $ O + + + O % V *.4.6.6.3.,.*.9.9.9.9.9.9.9.9.9.9.9.9.9.9.",
"9.9.9.9.9.9.9.9.9.9.9.9.9.9.6.5.,.,.[ 3 > 3 3 3 3 3 3 3 3 2 3 $ o + + + O X v *.,.3.6.6.3.,.9.9.9.9.9.9.9.9.9.9.9.9.9.9.",
"9.9.9.9.9.9.9.9.9.9.9.9.9.9.6.6.<.>.[ 3 3 3 3 3 3 3 > > > > $ + + + + + + . v &.*.3.6.6.4.,.9.9.9.9.9.9.9.9.9.9.9.9.9.9.",
"9.9.9.9.9.9.9.9.9.9.9.9.9.9.5.2.,.,.[ 3 3 3 4 3 3 3 b C C C e 0 , o + + + . c *.*.<.3.6.4.>.*.9.9.9.9.9.9.9.9.9.9.9.9.9.",
"9.9.9.9.9.9.9.9.9.9.9.9.9.9.4.>.*.,.[ 3 3 3 3 3 4 b ! ) ( W z z a - + + + . c *.*.*.2.6.5.<.*.9.9.9.9.9.9.9.9.9.9.9.9.9.",
"9.9.9.9.9.9.9.9.9.9.9.9.9.9.9.*.*.9.9.9.3 3 3 > 5 Y ;.6.7.9.A l k i O + + 9.9.9.*.*.2.6.6.4.<.9.9.9.9.9.9.9.9.9.9.9.9.9.",
"9.9.9.9.9.9.9.9.9.9.9.9.9.9.9.9.9.9.9.9.9.9.9.9.9.5 +.7.5.5.1.N @ O 9.9.9.9.9.9.9.*.2.6.4.,.*.9.9.9.9.9.9.9.9.9.9.9.9.9.",
"9.9.9.9.9.9.9.9.9.9.9.9.9.9.9.9.9.9.9.9.9.9.9.9.9.> +.8.5.6.6.&.B   9.9.9.9.9.9.9.9.4.4.,.*.*.9.9.9.9.9.9.9.9.9.9.9.9.9.",
"9.9.9.9.9.9.9.9.9.9.9.9.9.9.9.9.9.9.9.9.9.9.9.9.9.$ K ,.6.5.6.8.$.F 9.9.9.9.9.9.9.9.9.3.*.*.9.9.9.9.9.9.9.9.9.9.9.9.9.9.",
"9.9.9.9.9.9.9.9.9.9.9.9.9.9.9.9.9.9.9.9.9.9.9.9.9.9.9.O.6.6.6.5.7.,.9.9.9.9.9.9.9.9.4.2.;.9.9.9.9.9.9.9.9.9.9.9.9.9.9.9.",
"9.9.9.9.9.9.9.9.9.9.9.9.9.9.9.9.9.9.9.9.6.9.9.9.9.9.9.O.6.6.6.6.6.,.9.9.9.9.9.9.9.9.,.,.9.9.9.9.9.9.9.9.9.9.9.9.9.9.9.9.",
"9.9.9.9.9.9.9.9.9.9.9.9.9.9.9.9.6.9.9.9.6.6.9.9.9.9.2.4.6.6.6.6.6.4.3.9.9.9.9.9.9.6.4.9.9.9.9.9.9.9.9.9.9.9.9.9.9.9.9.9.",
"9.9.9.9.9.9.9.9.9.9.9.9.9.9.9.9.9.9.9.6.6.6.9.9.9.6.6.6.6.6.6.6.6.6.6.9.9.9.9.6.9.9.9.9.9.9.9.9.9.9.9.9.9.9.9.9.9.9.9.9.",
"9.9.9.9.9.9.9.9.9.9.9.9.9.9.9.9.9.9.9.6.6.6.9.9.6.6.6.6.6.6.6.6.6.6.9.9.9.9.9.9.9.9.9.9.9.9.9.9.9.9.9.9.9.9.9.9.9.9.9.9.",
"9.9.9.9.9.9.9.9.9.9.9.9.9.9.9.9.9.9.9.9.9.9.9.9.6.6.6.6.6.6.6.6.6.9.9.9.9.9.9.9.9.9.9.9.9.9.9.9.9.9.9.9.9.9.9.9.9.9.9.9.",
"9.9.9.9.9.9.9.9.9.9.9.9.9.9.9.9.9.9.9.9.9.9.9.9.9.9.9.9.9.9.9.9.9.9.9.9.9.9.9.9.9.9.9.9.9.9.9.9.9.9.9.9.9.9.9.9.9.9.9.9."
};
