/* XPM */
static char *witch3[] = {
/* columns rows colors chars-per-pixel */
"60 60 107 2 ",
"   c #1A1620",
".  c #251D2D",
"X  c #251E31",
"o  c #272030",
"O  c #292333",
"+  c #272A37",
"@  c #2A2837",
"#  c #2E2739",
"$  c #2B2B39",
"%  c #322B3E",
"&  c #2C303E",
"*  c #2D2F40",
"=  c #322E41",
"-  c #392E47",
";  c #3A2F48",
":  c #2D3341",
">  c #2E3946",
",  c #2F3D49",
"<  c #3A3444",
"1  c #3B324A",
"2  c #323E4C",
"3  c #3B384F",
"4  c #3D3E53",
"5  c #423C4A",
"6  c #31424E",
"7  c #334652",
"8  c #3C4356",
"9  c #344A56",
"0  c #3E4559",
"q  c #354E5A",
"w  c #3D4B5C",
"e  c #3F4F60",
"r  c #3F5262",
"t  c #365D64",
"y  c #395D66",
"u  c #366167",
"i  c #36666A",
"p  c #356B6D",
"a  c #3A6A6F",
"s  c #366F70",
"d  c #3B6C72",
"f  c #377172",
"g  c #3A7475",
"h  c #397778",
"j  c #3C7B7D",
"k  c #4D4358",
"l  c #544F5A",
"z  c #404E61",
"x  c #4D4F61",
"c  c #405162",
"v  c #5D5960",
"b  c #615B68",
"n  c #436472",
"m  c #42767D",
"M  c #68656C",
"N  c #746967",
"B  c #716E72",
"V  c #757275",
"C  c #747D7A",
"Z  c #85807F",
"A  c #95867E",
"S  c #3D7F80",
"D  c #477E86",
"F  c #4A7A84",
"G  c #3D8383",
"H  c #448085",
"J  c #418788",
"K  c #49858C",
"L  c #438A8C",
"P  c #458F90",
"I  c #4B8C92",
"U  c #459292",
"Y  c #4A9396",
"T  c #4C969A",
"R  c #4B9B9C",
"E  c #7DA69D",
"W  c #4EA4A5",
"Q  c #50A6A7",
"!  c #50A9A9",
"~  c #6CAFAD",
"^  c #848986",
"/  c #8E8F86",
"(  c #989693",
")  c #9B9A97",
"_  c #AF9E92",
"`  c #B09E91",
"'  c #B2A194",
"]  c #B9A79B",
"[  c #BDAE9E",
"{  c #8EA9A3",
"}  c #8BBBB6",
"|  c #BCB7A6",
" . c #BFBFB6",
".. c #C4B29D",
"X. c #BFC0AF",
"o. c #A0C2B5",
"O. c #B5C2B9",
"+. c #D0C3AE",
"@. c #C4C4BB",
"#. c #C9C9BF",
"$. c #CBCBC1",
"%. c #D2D2C7",
"&. c #D6D6CB",
"*. c #D9D9CE",
"=. c #DCDBD0",
"-. c #E0DDD2",
";. c None",
/* pixels */
";.;.;.;.;.;.;.;.;.;.;.;.;.;.;.;.;.;.;.;.;.;.;.;.;.;.;.;.;.;.;.;.;.;.;.;.;.;.;.;.;.;.;.;.;.;.;.;.;.;.;.;.;.;.;.;.;.;.;.;.",
";.;.;.;.;.;.;.;.;.;.;.;.;.;.;.;.;.;.;.;.;.;.;.;.;.;.;.;.;.;.;.;.;.;.;.;.;.;.;.;.;.;.;.;.;.;.;.;.;.;.;.;.;.;.;.;.;.;.;.;.",
";.;.;.;.;.;.;.;.;.;.;.;.;.;.;.;.;.;.;.;.;.;.;.;.;.;.;.;.;.;.;.;.;.;.;.;.;.;.;.;.;.;.;.;.;.;.;.;.;.;.;.;.;.;.;.;.;.;.;.;.",
";.;.;.;.;.;.;.;.;.;.;.;.;.;.;.;.;.;.;.;.;.;.;.W W ;.;.;.;.;.;.;.;.;.;.;.;.;.;.;.;.;.;.;.;.;.;.;.;.;.;.;.;.;.;.;.;.;.;.;.",
";.;.;.;.;.;.;.;.;.;.;.;.;.;.;.;.;.;.;.;.;.;.;.W T h ;.;.;.;.;.;.;.;.;.;.;.;.;.;.;.;.;.;.;.;.;.;.;.;.;.;.;.;.;.;.;.;.;.;.",
";.;.;.;.;.;.;.;.;.;.;.;.;.;.;.;.;.;.;.;.;.;.;.;.h ;.;.;.;.;.;.;.;.;.;.;.;.;.;.;.;.;.;.;.;.;.;.;.;.;.;.;.;.;.;.;.;.;.;.;.",
";.;.;.;.;.;.;.;.;.;.;.;.;.;.;.;.;.;.;.;.;.;.;.;.;.;.;.;.;.;.;.;.;.;.;.;.;.;.W W ;.;.;.;.;.;.;.;.;.;.;.;.;.;.;.;.;.;.;.;.",
";.;.;.;.;.;.;.;.;.;.;.;.;.;.;.;.;.;.;.;.;.;.;.;.;.;.;.;.;.;.;.;.;.;.;.;.;.W W W j ;.;.;.;.;.;.;.;.;.;.;.;.;.;.;.;.;.;.;.",
";.;.;.;.;.;.;.;.;.;.;.;.;.;.;.;.;.;.;.;.;.;.;.;.;.;.;.;.;.;.;.;.;.;.;.;.W W W P h ;.;.;.;.;.;.;.;.;.;.;.;.;.;.;.;.;.;.;.",
";.;.;.;.;.;.;.;.;.;.;.;.;.;.;.;.;.;.;.;.;.;.;.;.;.;.;.;.;.;.;.;.;.;.;.;.W W U f s ;.;.;.;.;.;.;.;.;.;.;.;.;.;.;.;.;.;.;.",
";.;.;.;.;.;.;.;.;.;.;.;.;.;.;.;.;.;.;.;.;.;.;.;.;.;.;.;.;.;.;.;.;.;.;.;.;.j h f ;.;.;.;.;.;.;.;.;.;.;.;.;.;.;.;.;.;.;.;.",
";.;.;.;.;.;.;.;.;.;.;.;.;.;.;.;.;.;.;.;.;.;.;.;.;.;.;.;.;.;.;.;.;.;.;.;.;.;.;.;.;.;.;.;.;.;.;.;.;.;.;.;.;.;.;.;.;.;.;.;.",
";.;.;.;.;.;.;.;.;.;.;.;.;.;.;.;.;.;.;.;.;.;.;.;.;.;.;.;.;.;.;.;.;.;.;.;.;.;.;.;.;.;.;.;.;.;.;.;.;.;.;.;.;.;.;.;.;.;.;.;.",
";.;.;.;.;.;.;.;.W W Q L ;.;.;.;.;.;.;.;.;.;.;.;.;.;.;.;.;.c ;.;.;.;.;.;.;.;.;.;.;.;.;.;.;.;.;.;.;.;.;.;.;.;.;.;.;.;.;.;.",
";.;.;.;.;.;.;.;.W W W j ;.;.;.;.;.;.;.;.;.;.;.;.;.;.;.;.;.c c ;.;.;.;.;.;.;.;.;.;.;.;.;.;.;.;.;.;.;.;.;.;.;.;.;.;.;.;.;.",
";.;.;.;.;.;.;.;.W R j f ;.;.;.;.;.;.;.;.;.;.;.;.;.;.;.;.c c c ;.;.;.;.;.;.;.;.;.;.;.;.;.;.;.;.;.;.;.;.;.;.;.;.;.;.;.;.;.",
";.;.;.;.;.;.;.;.U j f s ;.;.;.;.;.;.;.;.;.;.;.;.;.;.;.;.c r r ;.;.;.;.;.;.;.;.;.;.;.;.;.;.;.;.;.;.;.;.;.;.;.;.;.;.;.;.;.",
";.;.;.;.;.;.;.;.;.;.;.;.;.;.;.;.;.;.;.;.;.;.;.;.;.;.;.c k q e ;.;.;.;.;.;.;.;.;.;.;.;.;.;.;.;.;.;.;.;.;.;.;.;.;.;.;.;.;.",
";.;.;.;.;.;.;.;.;.;.;.;.;.;.;.;.;.;.;.;.;.;.;.;.;.;.0 w 4 3 e w ;.;.;.;.;.;.;.;.;.;.;.;.;.;.;.;.;.;.;.;.;.;.;.;.;.;.;.;.",
";.;.;.;.;.;.;.;.;.;.;.;.;.;.;.;.;.;.;.;.;.;.;.;.;.;.1 1 1 1 w 9 ;.;.;.;.;.;.;.;.;.;.;.;.;.;.;.;.;.;.;.;.;.;.;.;.;.;.;.;.",
";.;.;.;.;.;.;.;.;.;.;.;.;.;.;.;.;.;.;.;.;.;.;.;.;.;.1 1 1 1 3 2 ;.;.;.;.;.;.;.;.;.;.;.;.;.;.;.;.;.;.;.;.;.;.;.;.;.;.;.;.",
";.;.;.;.;.;.;.;.;.;.;.;.;.;.;.;.;.;.;.;.;.;.;.;.;.1 1 1 1 ; ; 8 ;.;.;.;.;.;.;.;.;.;.;.;.;.;.;.;.;.;.;.;.;.;.;.;.;.;.;.;.",
";.;.;.;.;.;.;.;.;.;.;.;.;.;.;.;.;.;.;.;.;.;.;.;.g 3 1 1 1 1 1 * 9 ;.;.;.;.;.;.;.;.;.;.;.;.;.;.;.;.;.;.;.;.;.;.;.;.;.;.;.",
";.;.;.;.;.;.;.;.;.;.;.;.;.;.;.;.;.;.;.;.;.;.;.u a 0 1 - - - - 8 t u ;.;.;.;.;.;.;.;.;.;.;.;.;.;.;.;.;.;.;.;.;.;.;.;.;.;.",
";.;.;.;.;.;.;.;.;.;.;.;.;.;.;.;.;.;.;.;.;.;.7 7 9 u 0 8 8 4 8 F y @ 6 7 7 7 7 ;.;.;.;.;.;.;.;.;.;.;.;.;.;.;.;.;.;.;.;.;.",
";.;.;.;.;.;.;.;.;.;.;.;.;.;.;.;.;.;.;.;.7 7 7 7 6 & m R Y T T q # X $ 6 7 9 r e ;.;.;.;.;.;.;.;.;.;.;.;.;.;.;.;.;.;.;.;.",
";.;.;.;.;.;.;.;.;.;.;.;.;.;.;.;.;.;.7 7 7 7 7 6 $ O 6 9 9 9 9 $ X X O @ 8 r r e c ;.;.;.;.;.;.;.W W Q ;.;.;.;.;.;.;.;.;.",
";.;.;.;.;.;.;.;.;.;.;.;.;.;.;.;.;.w 9 7 7 > : $ o o . . . . . o # % = % 8 r r r c ;.;.;.;.;.;.Q Q W W J ;.;.;.;.;.;.;.;.",
";.;.;.;.;.;.;.;.;.;.;.;.;.;.;.;.r c w 6 2 % # # # # # # # # # # = 1 1 4 k z r r c ;.;.;.;.;.W W W Q W G ;.;.;.;.;.;.;.;.",
";.;.;.;.;.;.;.;.;.;.;.;.;.;.;.;.c c k 3 1 1 1 1 1 1 1 ; 1 1 1 1 1 ; 3 e y y r r ;.;.;.;.;.;.W W W W R j ;.;.;.;.;.;.;.;.",
";.;.;.;.;.;.;.;.;.;.;.;.;.;.;.;.;.;.;.w 3 1 1 1 1 1 ; 1 1 ; 1 5 1 ; 4 g S j j j ;.;.;.;.;.;.Q W W R j f ;.;.;.;.;.;.;.;.",
";.;.;.;.;.;.;.;.;.;.;.;.;.;.;.;.;.;.;.d u y 0 ; ; ; - b M % N Z l * t j P R R T ;.;.;.;.;.;.;.J G j f f ;.;.;.;.;.;.;.;.",
";.;.;.;.;.;.;.;.;.;.;.;.;.;.;.;.;.;.;.Y U j u w q e q ^ [ A ..+.` C L U W Q Q ;.;.;.;.;.;.;.;.;.p ;.;.;.;.;.;.;.;.;.;.;.",
";.;.;.;.;.;.W T ;.;.;.;.;.;.;.;.;.;.;.I K a s G G G G E  .] ` ` | o.Q Q Y K H ;.;.;.;.;.;.;.;.;.;.;.;.;.;.;.;.;.;.;.;.;.",
";.;.;.;.;.W W J s ;.;.;.;.;.;.;.;.;.;.z 3 1 n R R Y Y R F 1 # O u R T Y y 6 7 7 ;.;.;.;.;.;.;.;.;.;.;.;.;.;.;.;.;.;.;.;.",
";.;.;.;.;.;.h h ;.;.;.;.;.;.;.;.;.;.c w 1 1 3 4 4 4 4 8 4 - O o $ & & & $ > 7 7 9 7 ;.;.;.;.;.;.;.;.;.;.;.;.;.;.;.;.;.;.",
";.;.;.;.;.;.;.;.;.;.;.;.;.;.;.;.;.r c e 3 - 1 1 ; ; 1 ; ; 1 O O O O O O O & 7 7 7 7 7 ;.;.;.;.;.;.;.;.;.;.;.;.;.;.;.;.;.",
";.;.;.;.;.;.;.;.;.;.;.;.;.;.;.;.c r e 4 1 1 1 1 1 1 1 1 1 1 % # O O O O O $ > 7 7 7 7 7 ;.;.;.;.;.;.;.;.;.;.;.;.;.;.;.;.",
";.;.;.;.;.;.;.;.;.;.;.;.;.;.;.;.e r w 1 1 1 1 1 1 1 1 1 1 1 1 # O O O O O O @ > , 6 7 7 ;.;.;.;.;.;.;.;.;.;.;.;.;.;.;.;.",
";.;.;.;.;.;.;.;.;.;.;.;.;.;.;.;.r e 8 1 - 1 1 1 1 1 1 1 1 1 ; # o O O O O O O O @ > 6 6 ;.;.;.;.;.;.;.;.;.;.;.;.;.;.;.;.",
";.;.;.;.;.;.;.;.;.;.;.;.;.;.;.;.c 8 1 1 1 1 1 1 1 1 1 1 1 1 1 # O O O O O O O O O O @ @ ;.;.;.;.;.;.;.;.;.;.;.;.;.;.;.;.",
";.;.;.;.;.;.;.;.;.;.;.;.;.;.;.;.;.3 1 1 1 1 1 1 1 1 1 1 1 1 1 # o O O O @ O o . . . v ( ;.;.;.;.;.;.;.;.;.;.;.;.;.;.;.;.",
";.;.;.;.;.;.;.;.;.;.;.;.;.;.;.;.;.;.1 1 1 1 ; - ; 1 1 1 1 1 1 # O O o o O . < B V B ) @.;.;.;.;.;.;.;.;.;.;.;.;.;.;.;.;.",
";.;.;.;.;.;.;.;.;.;.;.;.;.;.;.;.;.;.;.;.1 1 k r z 1 ; ; ; ; 1 # o @ > > @ < V #.#.$.#.@. .;.;.;.;.;.;.;.;.;.;.;.;.;.;.;.",
";.;.;.;.;.;.;.;.;.;.;.;.;.;.;.;.;.;.;.;.;.;.W W T k 8 4 4 4 4 $ @ 6 p s ;.;.#.*.&.*.*.%.@. .;.;.;.;.;.;.;.;.;.;.;.;.;.;.",
";.;.;.;.;.;.;.;.;.;.;.;.;.;.;.;.;.;.;.;.;.;.;.W W T T T T U d i i p f f ;.;.&.*.*.*.*.*.%.@.;.;.;.;.;.;.;.;.;.;.;.;.;.;.",
";.;.;.;.;.;.;.;.;.;.;.;.;.;.;.;.;.;.;.;.;.;.;.W W Q Q Q ! W h f f f f f ;.;.*.*.*.*.*.*.&.@.;.;.;.;.;.;.;.;.;.;.;.;.;.;.",
";.;.;.;.;.;.;.;.;.;.;.;.;.;.;.;.;.;.;.*.;.;.;.W W W W W W R h s f f f f { -.*.*.*.*.*.*.&.@.;.;.;.;.;.;.;.;.;.;.;.;.;.;.",
";.;.;.;.;.;.;.;.;.;.;.;.;.;.;.;.;.;.;.*.*.;.} ~ W Q Q W Q R h f f f f g O.=.*.*.*.*.*.*.*.;.;.;.;.;.;.;.;.;.;.;.;.;.;.;.",
";.;.;.;.;.;.;.;.;.;.;.;.;.;.*.;.;.;.;.;.*.*.*.*.;.T T R R ;.p p p p p ;.*.*.*.*.*.*.*.*.*.;.;.;.;.;.;.;.;.;.;.;.;.;.;.;.",
";.;.;.;.;.;.;.;.;.;.;.;.;.;.*.*.*.;.;.*.*.*.*.=.@.x 4 2 ;.;.;.+ $ + ;.;.*.*.*.;.;.*.*.*.;.;.;.;.;.;.;.;.;.;.;.;.;.;.;.;.",
";.;.;.;.;.;.;.;.;.;.;.;.;.;.;.*.*.*.*.*.*.*.*.=.@.k - # ;.;.;.X O . ;.;.;.;.;.;.*.*.*.;.;.;.;.;.;.;.;.;.;.;.;.;.;.;.;.;.",
";.;.;.;.;.;.;.;.;.;.;.;.;.;.;.*.*.*.*.*.*.*.*.*.$.5 o ;.;.;.;.  .   ;.;.;.;.;.;.*.*.;.;.;.;.;.;.;.;.;.;.;.;.;.;.;.;.;.;.",
";.;.;.;.;.;.;.;.;.;.;.;.;.;.;.*.*.*.*.*.*.*.*.*.%./ ;.;.;.;.;.;.;.;.;.;.;.;.;.;.*.;.;.;.;.;.;.;.;.;.;.;.;.;.;.;.;.;.;.;.",
";.;.;.;.;.;.;.;.;.;.;.;.;.;.;.;.*.*.*.*.*.*.*.*.*.*.;.;.;.;.;.;.;.;.;.;.;.;.;.;.;.;.;.;.;.;.;.;.;.;.;.;.;.;.;.;.;.;.;.;.",
";.;.;.;.;.;.;.;.;.;.;.;.;.;.;.;.;.*.*.*.*.*.*.*.*.*.;.;.;.;.;.;.;.;.;.;.;.;.;.;.;.;.;.;.;.;.;.;.;.;.;.;.;.;.;.;.;.;.;.;.",
";.;.;.;.;.;.;.;.;.;.;.;.;.;.;.;.;.;.*.*.*.*.*.*.*.*.;.;.;.;.;.;.;.;.;.;.;.;.;.;.;.;.;.;.;.;.;.;.;.;.;.;.;.;.;.;.;.;.;.;.",
";.;.;.;.;.;.;.;.;.;.;.;.;.;.;.;.;.;.;.*.*.*.*.*.*.*.;.;.;.;.;.;.;.;.;.;.;.;.;.;.;.;.;.;.;.;.;.;.;.;.;.;.;.;.;.;.;.;.;.;.",
";.;.;.;.;.;.;.;.;.;.;.;.;.;.;.;.;.;.;.;.*.*.*.*.*.;.;.;.;.;.;.;.;.;.;.;.;.;.;.;.;.;.;.;.;.;.;.;.;.;.;.;.;.;.;.;.;.;.;.;.",
";.;.;.;.;.;.;.;.;.;.;.;.;.;.;.;.;.;.;.;.;.;.;.;.;.;.;.;.;.;.;.;.;.;.;.;.;.;.;.;.;.;.;.;.;.;.;.;.;.;.;.;.;.;.;.;.;.;.;.;."
};
