/* XPM */
static char *a[] = {
/* columns rows colors chars-per-pixel */
"32 48 131 2 ",
"   c #322B21",
".  c #4D4435",
"X  c #615643",
"o  c #564C3B",
"O  c #4C4334",
"+  c #4D4334",
"@  c #534A39",
"#  c #605542",
"$  c #5A503E",
"%  c #4E4535",
"&  c #5E5340",
"*  c #5F5441",
"=  c #4F4636",
"-  c #4D4434",
";  c #5C513F",
":  c #524838",
">  c #615642",
",  c #5E5341",
"<  c #5E5441",
"1  c #615542",
"2  c #615641",
"3  c #635740",
"4  c #635640",
"5  c #625641",
"6  c #5F5442",
"7  c #5D5444",
"8  c #A97C23",
"9  c #F0A205",
"0  c #EDA007",
"q  c #BA851C",
"w  c #5E5442",
"e  c #B2811F",
"r  c #FFAC00",
"t  c #FFAA00",
"y  c #C58B17",
"u  c #FEA900",
"i  c #FFAB00",
"p  c #605541",
"a  c #FFAD00",
"s  c #C48A18",
"d  c #745F39",
"f  c #A07727",
"g  c #E99E08",
"h  c #BF881A",
"j  c #FFAE00",
"k  c #B8841D",
"l  c #575045",
"z  c #98732A",
"x  c #D29212",
"c  c #FFAF00",
"v  c #B7841D",
"b  c #565045",
"n  c #97722A",
"m  c #D29112",
"M  c #605543",
"N  c #715E3A",
"B  c #806634",
"V  c #AA7C23",
"C  c #DE980D",
"Z  c #595144",
"A  c #A47A25",
"S  c #5C5243",
"D  c #A67B24",
"F  c #D29312",
"G  c #5C5343",
"H  c #725F3A",
"J  c #8B6C2F",
"K  c #8B6C30",
"L  c #8C6C2F",
"P  c #7E6535",
"I  c #786137",
"U  c #C38918",
"Y  c #65573F",
"T  c #5D5342",
"R  c #5D5343",
"E  c #816734",
"W  c #FDAA00",
"Q  c #E79F09",
"!  c #67593E",
"~  c #585045",
"^  c #7D6435",
"/  c #FDA600",
"(  c #E79B09",
")  c #67583E",
"_  c #7D6535",
"`  c #C98C16",
"'  c #D59F11",
"]  c #FFE200",
"[  c #E7CE09",
"{  c #675B3E",
"}  c #8C6D2F",
"|  c #FEAA00",
" . c #FFBD00",
".. c yellow",
"X. c #E7E609",
"o. c #675D3E",
"O. c #5A5144",
"+. c #FEAB00",
"@. c #FFBE00",
"#. c #8A6B30",
"$. c #C38A18",
"%. c #9D7528",
"&. c #9F7627",
"*. c #9F7E27",
"=. c #A09827",
"-. c #968F2B",
";. c #635840",
":. c #FFB000",
">. c #C58C17",
",. c #5B5244",
"<. c #5B5144",
"1. c #5B4F44",
"2. c #5B5043",
"3. c #A67924",
"4. c #C58917",
"5. c #5A4F44",
"6. c #5A4E44",
"7. c #5C5143",
"8. c #A68E24",
"9. c #FFDD00",
"0. c #C5A817",
"q. c #5E5342",
"w. c #6C623C",
"e. c #B0AB20",
"r. c #B4AF1E",
"t. c #5C5043",
"y. c #A69F24",
"u. c #C5C117",
"i. c #776D38",
"p. c #F7F603",
"a. c white",
/* pixels */
"  . X o O + O @ # $ + + + + O % & * = - ; # : O + + + O o X .   ",
"  . > * & & & * # * & & & & & , * * , & * # < & & & & & * > .   ",
"  . > # # # # # # # # # # # # # # # # # # # # # # # # # # > .   ",
"  . 1 2 3 4 3 5 6 # # # # # # # # # # # # # # 6 5 3 4 3 2 1 .   ",
"  . 7 8 9 0 9 q w # # # # # # # # # # # # # # w q 9 0 9 8 7 .   ",
"  . 7 e r t r y w # # # # # O # # # # # # # # w y r t r e 7 .   ",
"  . 7 e r u i y w p # # # # O O # # # # # # p w y i u r e 7 .   ",
"  . 7 e a s d f g h p # # # O O # # # # # p h g f d s a e 7 .   ",
"  . 7 e j k l z a x p # # O O O # # # # # p x a z l k j e 7 .   ",
"  . 7 e c v b n r m p # # O O O O # # # # p m r n b v c e 7 .   ",
"  . M N B V C g i m p # # O O O O # # # # p m i g C V B N M .   ",
"  . > w Z A r t i m p # O O O O O # # # # p m i t r A Z w > .   ",
"  . > # S D a r a F p 6 O O O O O O G S 6 p F a r a D S # > .   ",
"  . > # w H J K L P w b O O O O O O b       P L K J H w # > .   ",
"  . > # p w G G G       b b O O O 7             G G w p # > .   ",
"  . > # # # #               7 7 7           O O O # # # # > .   ",
"  . > # # #                         O O O O O O O # # # # > .   ",
"  . > # # O O         O O O O O O O O O O O O O # # # # # > .   ",
"  . > # p R O O O O O O O O O O O O O O O O } G G O.R p # > .   ",
"  . > # T #.$.O O O O O O O O O O b b b b &.N R %.$.#.T # > .   ",
"  . > # S D :.>.w w b b b b -.  -.-.O 7 7 ,.w w >.:.D S # > .   ",
"  . > # S 3.t 4.w # 7 7 7 7 a.O a.a.O 7 7 # # w 4.t 3.S # > .   ",
"  . > # 7.8.9.0.q.# 7 7 7 7 a.a.a.a.a.7 7 # # q.0.9.8.7.# > .   ",
"  . > # t.y...u.q.# # 7 7 7 7       7 7 # # # q.u...y.t.# > .   ",
"  . > # t.y...u.q.# # O O O O O         # # # q.u...y.t.# > .   ",
"  . > # 7.8.9.0.q.# O O O O O O         # # # q.0.9.8.7.# > .   ",
"  . > # S 3.t 4.w # O O O O O O           # # w 4.t 3.S # > .   ",
"  . > # S D :.>.w O O O O O O O           ,.w w >.:.D S # > .   ",
"  . > # T #.$.%.R O O O O O O O O         &.N R %.$.#.T # > .   ",
"  . > # p R O.G G O O O O O O O O         +.} G G O.R p # > .   ",
"  . > # # # # # G O O O O O O O O         | } G # # # # # > .   ",
"  . > # # # # # T O O O O O O O O         ` _ T # # # # # > .   ",
"  . > # # # # # p O O O O O O O O         ~ w p # # # # # > .   ",
"  . > # p w G G G O O O O O O O           R T G G G w p # > .   ",
"  . > # w H J K L O O O O O O O           w P L K J H w # > .   ",
"  . > # S D a r a F O O O O O O           p F a r a D S # > .   ",
"  . > w Z A r t i m p O O O O           # p m i t r A Z w > .   ",
"  . M N B V C g i m p 7 7 7 7 # b b b b # p m i g C V B N M .   ",
"  . 7 e c v b n r m p = O O = = =     = # p m r n b v c e 7 .   ",
"  . 7 e j k l z a x = = O O = = =     = = p x a z l k j e 7 .   ",
"  . 7 e a s d f g h = = = = = = = = = = = p h g f d s a e 7 .   ",
"  . 7 e r u i y w p # = = = = = = = = = # # p w y i u r e 7 .   ",
"  . 7 e r t r y w # # # # # # # # # # # # # # w y r t r e 7 .   ",
"  . 7 8 9 0 9 q w # # # # # # # # # # # # # # w q 9 0 9 8 7 .   ",
"  . 1 2 3 4 3 5 6 # # # # # # # # # # # # # # 6 5 3 4 3 2 1 .   ",
"  . > # # # # # # # # # # # # # # # # # # # # # # # # # # > .   ",
"  . > * & & & * # * & & & & & , * * , & * # < & & & & & * > .   ",
"  . X o O + O @ # $ + + + + O % & * = - ; # : O + + + O o X .   "
};
