/* XPM */
static char *sol[] = {
/* columns rows colors chars-per-pixel */
"32 48 51 1 ",
"  c #4C4334",
". c #4B4233",
"X c #504737",
"o c #514737",
"O c #504637",
"+ c #544A39",
"@ c #9A896B",
"# c #A39071",
"$ c #A29071",
"% c #A18F70",
"& c #958468",
"* c #544A3A",
"= c #9F8D6E",
"- c #A89575",
"; c #A69374",
": c #9A886B",
"> c #A79474",
", c #A59273",
"< c #A59373",
"1 c #9B896C",
"2 c #99876B",
"3 c #98866A",
"4 c #9E8C6E",
"5 c #A69373",
"6 c #534939",
"7 c #928166",
"8 c #918065",
"9 c #4A4132",
"0 c #524938",
"q c #A49172",
"w c #978569",
"e c #342D22",
"r c #383126",
"t c #5F5441",
"y c #645845",
"u c #645844",
"i c #635844",
"p c #635744",
"a c #322B21",
"s c #372F24",
"d c #5B513F",
"f c #605542",
"g c #5E5441",
"h c #5E5341",
"j c #5E5340",
"k c #4E4536",
"l c #4D4334",
"z c #4D4434",
"x c #4E4535",
"c c #4D4435",
"v c white",
/* pixels */
"                                ",
"                                ",
". XoooOOooooooOOooOOooooOOoooX .",
".+@#$%&&%$$$$%&&%%&&%$$%&&%$#@+.",
".*=--;::;----;::;;::;--;::;--=*.",
".*=->,::,>>>>,::<<::,>>,::,>-=*.",
".*=>122222222222222222222221>=*.",
".*=>:3222222222222222222223:>=*.",
".*45:3222222222222222222223:54*.",
".67:232222222222222222222232:76.",
".682222222222222222222222222286.",
".67:232222222222222222222232:76.",
".*45:3222222222222222222223:54*.",
".*=>:3222222222222222222223:>=*.",
".*=>:3222222222222222222223:>=*.",
".*=>:3222222222222222222223:>=*.",
".*=>:3222222222222222222223:>=*.",
".*=>:3222222222222222222223:54*.",
".*=>:32222222222222222222232:76.",
".*=>:32222222222222222222222286.",
".*45:32222222222222222222232:76.",
".67:23222222222222222222223:54*.",
".68222222222222222222222223:>=*.",
".67:23222222222222222222223:>=*.",
".*45:3222222222222222222223:>=*.",
".*=>:3222222222222222222223:>=*.",
".*=>:3222222222222222222223:>=*.",
".*=>:3222222222222222222223:>=*.",
".*=>:3222222222222222222223:>=*.",
".*45:3222222222222222222223:54*.",
".67:232222222222222222222232:76.",
".682222222222222222222222222286.",
".67:232222222222222222222232:76.",
".*45:3222222222222222222223:54*.",
".*=>:3222222222222222222223:>=*.",
".*=>122222222222222222222221>=*.",
".*=->,::<<::,>>,::,>>>>,::,>-=*.",
".*=--;::;;::;--;::;----;::;--=*.",
"901qq$ww$$ww$qq$ww$qqqq$ww$qq109",
"ertyuippiippiuuippiuuuuippiuytre",
"asdffffffffffffffffffffffffffdsa",
"asdffffffffffffffffffffffffffdsa",
"asdffffffffffffffffffffffffffdsa",
"asdffffffffffffffffffffffffffdsa",
"asdfghhgttghgghgttggttghgghgfdsa",
"asdjkllkjjklzzlkjjxxjjklzzlkjdsa",
"asdjc..cjjc.  .cjjccjjc.  .cjdsa",
"asdjc..cjjc.  .cjjccjjc.  .cjdsa"
};
