/* XPM */
static char *wall2[] = {
/* columns rows colors chars-per-pixel */
"32 48 43 1 ",
"  c #2E271E",
". c #2F281F",
"X c #342D22",
"o c #373025",
"O c #393126",
"+ c #3E362A",
"@ c #40372B",
"# c #433A2D",
"$ c #473E30",
"% c #483F31",
"& c #4C4334",
"* c #504637",
"= c #514738",
"- c #544A3A",
"; c #594E3D",
": c #5B503F",
"> c #5E5341",
", c #625643",
"< c #655946",
"1 c #685C47",
"2 c #675B48",
"3 c #6A5E4A",
"4 c #6E614C",
"5 c #71644E",
"6 c #746650",
"7 c #766852",
"8 c #7B6D55",
"9 c #7E6F58",
"0 c #7E7057",
"q c #7F7058",
"w c #82735A",
"e c #87785E",
"r c #88785F",
"t c #8D7C62",
"y c #907F65",
"u c #938266",
"i c #968469",
"p c #99876A",
"a c #9C8A6D",
"s c #A08E6F",
"d c #A59273",
"f c #A99575",
"g c #AD9979",
/* pixels */
"#rgdadspyw*:8555532>&,ffssdait3#",
"Owdppapuw9$*543333>;#-dapppiew<O",
"+7itttttww**3,,<,,;;%-ytttttww3+",
"&4wqw9w988;*:;:;;>;;&;w9ww9w993&",
"@375957853&$-*;*=;**#*w5975w55:+",
"X:3,5,34:-+@*&=&&-&#O#3,43,5<;&X",
".+&*;=--&+.X@$*&&&%OXX#&--*-*#X.",
"=&->;&;<,****,:*-<<=&**>:=*,<;**",
"itrr5=7airuurr9;<aatuurrw,:iatri",
"dspu9&wgdasspye=3gdasdaur,-dfssf",
"pptw8#5dpiaayww*:saiiaiee:&sapip",
"trew9&4uryrreww-:uurrrrww,*ryttr",
"99997=3www98w88;:w0q08q8q<=9ww98",
"37733#,73855733&-03874843=&84573",
">75,:O,7<8157,>@*8>8538<>&#7357>",
"$17545531;$7gdsssiie:=7744533,=$",
"o,64444<:;+4faaaaire;$754343,:*O",
"O>3<<<<,;;#3auututww;$3<<<<<:;*O",
"&->;::::;;&<wwwwww8w,&:::;::;;-%",
"#=;=;=-;==#>q5975w55;#;*-;=;-*&#",
"X&=&-&-=%%X;7,7337>>&O;&=*&;&%#X",
" #&&&&&&#O +&*>;;:*#Xo&$&&&&%+X ",
"%=;--&-:-###&--&*::$#&;:-*&:;&##",
"eewq5=5ut9ewqw7-<ruwweww7,;ryewe",
"faptq&qgdadsaue;3gdasdait,:dfasf",
"aauw8#7faaaauww&>daaaairw>&asaaa",
"tttq8%5auttutqw=:aututrww,&uuttt",
"wwqq8=3wqwq0qqq::wqwwqwqw<-qwwww",
"48853&,85q57q55*-w5875q54;&96794",
":54::O:5,7145::+&5,54<7,:&+5,45>",
"=;-*&X%;=:--:&#XO&*:;-:==#o;=-;=",
"&:>,:&=::-*=-=#++#=&&-:::-&:::=&",
"&8iurrtre5;;44,<<><;*>uutrtrrw<&",
"#rgssssaye-;754554<>&,fdssdsir4#",
"owdapaiuw8$*74344<>:#-dsaapiew3X",
"#7ityryeww**<,<,,,;;$-uyrrytww3@",
"&4e9w9wq99;&:;;;;;;;&;wwwwww8w4%",
"+375957843&&;&;=*;**#&w5875w53>@",
".:3,5,44:-O@*%-&&-&$o#4>43,7,;&.",
" +&*-==;&+XX+&&&&&$O.X$&--*-*#X.",
"==->;&;<,&***>;*;,<;&**>>=*,,;*=",
"irrr7=7aituttt8;3pprturrw,:ipuru",
"fspy9&wgdadsate-1fdssdsue,=sfssf",
"parw8#5dppppuww&>dpippiww>&ssppp",
"rreww&4utrtte9w->urerrrww,*ttrrr",
"0w987=1w9999w89;:wwww0w8w,*08www",
"37731#,73955833%*84855044=&74783",
">75>:O,7,9147,,@*8,7418,>&@8<57>"
};
