/* XPM */
static char *mur[] = {
/* columns rows colors chars-per-pixel */
"32 48 51 1 ",
"  c #2E271E",
". c #2F281F",
"X c #342D23",
"o c #373025",
"O c #393226",
"+ c #3D3529",
"@ c #40372B",
"# c #433A2D",
"$ c #473E30",
"% c #483F31",
"& c #4D4334",
"* c #504737",
"= c #514738",
"- c #544A3A",
"; c #594E3D",
": c #5B503F",
"> c #5E5341",
", c #615643",
"< c #655946",
"1 c #685C47",
"2 c #675B48",
"3 c #6B5E4A",
"4 c #6E614C",
"5 c #71644E",
"6 c #746650",
"7 c #766852",
"8 c #7B6D55",
"9 c #7E6F58",
"0 c #7E7057",
"q c #7F7058",
"w c #82735A",
"e c #87785E",
"r c #88785F",
"t c #8C7C62",
"y c #907F65",
"u c #928165",
"i c #968469",
"p c #99876A",
"a c #9C8A6D",
"s c #A08E6F",
"d c #A18E70",
"f c #A69373",
"g c #A99676",
"h c #AB9877",
"j c #AD9A79",
"k c #B29E7C",
"l c #B6A17E",
"z c #B8A27F",
"x c #B9A481",
"c c #BEA984",
"v c #C1AB86",
/* pixels */
"vvljcjzxhcvkjvvvvcgxlhvvklchxlhc",
"xxjhlgkkglxkgxzxxlglkhzzhhlhljjx",
"gggghgggggggggghhgfhhfghghhffhfh",
"fgfgffffgfffgfffffgffffffffffhff",
"gfgggfggggggfgggggggfgfhgffghfhf",
"hggfggklhlxkjxhkxxxhklhlclgffhgh",
"faafssjjfkxhfkfjlllfhjfllhafssdd",
"rttrttuttyyytyttuuuttuttuutrttrt",
"00w000090990w909qq00qq000000000w",
"0000000w0ww0000wq000q0000000w099",
"33334434333333343324434244343333",
"=&*=&&&*&****&*&******&&&&&&&*=&",
"&%&#OOO+%&&$$$OOOO$$&&$&#OOO$&&$",
"&&*&OOO+&&&*-=#++$==*&&*#OOO&&&&",
"&>3<;>:>>-&3te888706>=22>;>;>:*&",
"$27646432>%6hfadfput>=7744633,=$",
"O<633351:;+4gaaaapt0;%644433<-&o",
"O>312<<,;;@1puyyutqq:#32<2<<>>&+",
"%->;;>;:;;&2ewwwwwqq,&::;>>>->-%",
"#=-=;=-;*-#,85967966;$;*--*--=&#",
"X&=&-&==%$O-6<6337,>$+-&-=&-&%#X",
" #&&&&&&#O +**:;->=#Xo&$&&%&%+X ",
"#=;--&-;-###%;-&=:;%#&-;-=&>>&#$",
"reww5-5ytwew8w6;<ttwwrwe8>;ttwww",
"gapy8*whfafdpue;3gfddfpit<;dgdsf",
"aayw8#6gaaaauew&,gappaie9>&ddppa",
"ytrw8%5pttttt9w=>iytyttww<&yutyt",
"www88*3wwwwww99;>w0wwww092=9wwww",
"57753%285867855*-95875054;&86884",
":55>:O;5<7236>;+&6,64<7<>&@6<35>",
"-;-*&X%;*;-;;&@XO%&;;=:&&#X;=-;=",
"&;>,;*-;>-&*-=##+#=*&=>>>-&;>;=&",
"&8iyryrrr5;;44,2<,,;*,yuyryrrw2&",
"#rhfafspuw-;7545531>%,ggssfpir3#",
"owfpiapyw8%=633341>;@-fapppprw1o",
"@8iryryrww**3<,<<,;;%-uyttytww3@",
"%5www8ww98;&;;;;;;;;&;wwww8w8w3%",
"@185857743%&;&;==-**#*85775w54:@",
".>3,5,35:;O@*&-&&-&#o#5>53,7,;&X",
".+%*;---&+XX+%&&&&%O.o#&--=-*#o.",
"**-:-&;<,&*&=,;*-<,-==*>:-=,,;*=",
"uyrr7-7airuttt8;1apryurrw,:uayri",
"fsiyw&whfaffpyw-1hfssfaur,-fgssf",
"ppyw8@6fpippuww&:faiiaurw>%sappp",
"ttrw8&3utrtrrww-:urrrrrww,*ttrtr",
"8w888=1w8w8ww88;;wwww8w8w,-8www8",
"37731#<75845833%-83855853-%75571",
",75>;O,6<8257,>#*8,7518,,%#8157>"
};
