/* XPM */
static char *witch2[] = {
/* columns rows colors chars-per-pixel */
"32 48 2 1 ",
"  c #ECECE0",
". c None",
/* pixels */
"................................",
"................................",
"................................",
"................................",
"................................",
"................................",
"................................",
"................................",
"................. ..............",
".................  .............",
"................   .............",
"................   .............",
"................   .............",
"...............     ............",
"..............      ............",
"..............      ............",
".......   ...       ............",
"......              ............",
"......                  ........",
".......                    .....",
".......                    .....",
"........                  ......",
"..........               .......",
".........             ..........",
".........             ..........",
"..........           ...........",
"..........          ............",
"..........          ............",
".........           ............",
".........           ............",
"........            ............",
"........             ...........",
"........              ..........",
"........              ..........",
"........              ..........",
"........              ..........",
"........              ..........",
".........            ...........",
"...........         ............",
"............  ...  .............",
"................................",
"................................",
"................................",
"................................",
"................................",
"................................",
"................................",
"................................"
};
