/* XPM */
static char *kitty[] = {
/* columns rows colors chars-per-pixel */
"48 48 18 1 ",
"  c black",
". c #ED2C2C",
"X c #EE2C2C",
"o c #EA3F59",
"O c #F15454",
"+ c #F26161",
"@ c #EBE830",
"# c #DE78DE",
"$ c #DF78DF",
"% c #E699E6",
"& c #ECB2EC",
"* c #EEBBEE",
"= c #FBCBCB",
"- c #F7DDF7",
"; c #F9E5F9",
": c #FBEEFB",
"> c #FDF7FD",
", c white",
/* pixels */
"################################################",
"################################################",
"################################################",
"################################################",
"################################################",
"################################################",
"################################################",
"################################################",
"###########$####################################",
"############-,,,-###############-,,,-###########",
"###########,,,,,,,#############,,,,,,,##########",
"##########-,,,,,,,,#%-,,,,,-%o.+,,,,,,-#########",
"##########,,,,,,,,,>,,,,,,,+....,,,,,,,#########",
"##########,,,,,,,,,,,,,,,,,.....,,,,,,,#########",
"##########,,,,,,,,,,,,,,,,,+......=,,,,#########",
"##########>,,,,,,,,,,,,,,,,,,,.....,,,,#########",
"##########,,,,,,,,,,,,,,,,,,,,.....+.+,#########",
"##########,,,,,,,,,,,,,,,,,,,,........,#########",
"##########,,,,,,,,,,,,,,,,,,,,=...O+.+,#########",
"##########;,,,,,,,,,,,,,,,,,,,,,,+.+,,>#########",
"########  >,,,,,,,,,,,,,,,,,,,,,,...,,,#########",
"#########  ,,,,,,,,,,,,,,,,,,,,,,+.+,,,#########",
"##########  ,,,,,,,,,,,,,,,,,,,,,,,,,,,#########",
"##########,  ,,,,,,,,,,,,,,,,,,,,,,,,   ########",
"##########,,,,,,,,,,,,,,,,,,,,,,,,    ,#########",
"##########,,,,,,,,,  ,,,,,,,  ,,,, ,,,-#########",
"#####      ,,,,,,,,  ,,,,,,,  ,,,,,,,,##########",
"##### ####,,,,,,,,,  ,,,,,,,  ,,,,,,,>##########",
"##########  ,,,,,,,,,,,,,,,,,,,,,     ##########",
"########   ,,,,,,,,,,,,@@,,,,,,,,,,,>###########",
"#######  ##-,,,,,,,,,,,@@,,,,,,,,,,,&########$##",
"###########%,,,,,,,,,,,,,,,,,,,,,,,:############",
"############*,,,,,,,,,,,,,,,,,,   ,%############",
"#############*,,,,,,,,,,,,,,,,,,,  #############",
"##############%:,,,,,,,,,,,,,,,,,*  ############",
"################&>,,,,,,,,,,,,,-%##  ###########",
"##################%-,,,,,,,,,-%#################",
"################################################",
"################################################",
"################################################",
"################################################",
"################################################",
"################################################",
"################################################",
"#####################################$##########",
"#######################################$########",
"################################################",
"################################################"
};
