/* XPM */
static char *mur[] = {
/* columns rows colors chars-per-pixel */
"48 48 3 1 ",
"  c #DE78DE",
". c #DF78DF",
"X c white",
/* pixels */
"    X         X        X        X       X       ",
"    X         X        X        X       X       ",
"    X         X        X        X       X       ",
"    X         X        X        X       X       ",
"XXXXXXXXXXXXXXXXXXXXXXXXXXXXXXXXXXXXXXXXXXXXXXXX",
"         X        X        X       X       X    ",
"         X        X        X       X       X    ",
"         X        X        X       X       X    ",
"         X        X        X       X       X    ",
"XXXXXXXXXXXXXXXXXXXXXXXXXXXXXXXXXXXXXXXXXXXXXXXX",
"   X       X        X         X       X     X   ",
"   X       X        X         X       X     X   ",
"   X       X        X         X       X     X   ",
"   X       X        X         X       X     X   ",
"XXXXXXXXXXXXXXXXXXXXXXXXXXXXXXXXXXXXXXXXXXXXXXXX",
"    X     X       X       X      X       X      ",
"    X     X       X       X      X       X      ",
"    X     X       X       X      X       X      ",
"    X     X       X       X      X       X      ",
"XXXXXXXXXXXXXXXXXXXXXXXXXXXXXXXXXXXXXXXXXXXXXXXX",
"  X         X        X       X       X      X   ",
"  X         X        X       X       X      X   ",
"  X         X        X       X       X      X   ",
"  X         X        X       X       X      X   ",
"XXXXXXXXXXXXXXXXXXXXXXXXXXXXXXXXXXXXXXXXXXXXXXXX",
" X       X        X        X       X      X     ",
" X       X        X        X       X      X     ",
" X       X        X        X       X      X     ",
" X       X        X        X       X      X     ",
"XXXXXXXXXXXXXXXXXXXXXXXXXXXXXXXXXXXXXXXXXXXXXXXX",
"     X        X       X        X      X       X ",
"     X        X       X        X      X       X ",
"     X        X       X        X      X       X ",
"     X        X       X        X      X       X ",
"XXXXXXXXXXXXXXXXXXXXXXXXXXXXXXXXXXXXXXXXXXXXXXXX",
"    X      X       X       X        X      X    ",
"    X      X       X       X        X      X    ",
"    X      X       X       X        X      X    ",
"    X      X       X       X        X      X    ",
"XXXXXXXXXXXXXXXXXXXXXXXXXXXXXXXXXXXXXXXXXXXXXXXX",
"      X       X      X        X      X       X  ",
"      X       X      X        X      X       X  ",
"      X       X      X        X      X       X  ",
"      X       X      X        X      X       X  ",
"XXXXXXXXXXXXXXXXXXXXXXXXXXXXXXXXXXXXXXXXXXXXXXXX",
"   X     X       X       X       X       X      ",
"   X     X       X       X       X       X      ",
"   X     X       X       X       X       X      "
};
