/* XPM */
static char *porte[] = {
/* columns rows colors chars-per-pixel */
"48 48 40 1 ",
"  c #171717",
". c #362C36",
"X c #3B2E3B",
"o c #3F3A3A",
"O c #433343",
"+ c #483748",
"@ c #4C394C",
"# c #543E54",
"$ c #4A4145",
"% c #5B445B",
"& c #634963",
"* c #6B4E6B",
"= c #6E506E",
"- c #745474",
"; c #7B577B",
": c #7C597C",
"> c #B01414",
", c #BF1313",
"< c #C9A91B",
"1 c #835E83",
"2 c #876187",
"3 c #8D648D",
"4 c #926692",
"5 c #956995",
"6 c #9A6C9A",
"7 c #A06FA0",
"8 c #A573A5",
"9 c #DD7FDD",
"0 c #C6AEBD",
"q c #C2B6B6",
"w c #C4B2BA",
"e c #C8B0BF",
"r c #DD84DD",
"t c #DC8CDC",
"y c #DC94DC",
"u c #CDA6C6",
"i c #CAABC3",
"p c #CFA6C9",
"a c #CEA8C8",
"s c #D0A5CB",
/* pixels */
"rtyyyyyyyyyyyttyttyyyttyyyyyyyyyytyyytytyttttttt",
"tyyyyyyyyyyytyyyytytyyyyyyyyyyyytyyyyttttttttyyt",
"tyyyyyyyyyyytytyyyyyyyyyyyyyyyyytyyytttttttttttt",
"yyyyyyyyyytyyttyttyyyytyyyytyyytyyyyytttttrttttt",
"yyysyyyyyyytttttttyyyytytytttttttttttttttttttttt",
"yyyyyyyytytytyytyttytty321111rrtrtrttrtyytrtttyt",
"yyyyyyyyyyyyyyyyttt561;uuuiii&*rrrrrrtyytttttyyt",
"yyyyyyyyyyyytyytt11ppuuiii0ieii+@rrrrrttytttttty",
"yyyyyyyyyyyyytyt3uuii000wweeqeq0wX99rrtttttttttt",
"yysyyyyyyyyyttt4pii00000q$wqqqqqww.rrrrtttytytyr",
"yyyyyyyyyyyytr-uiiw00wqqqOqqqqqwwq0.9rrttyytyyyt",
"yyyyyysyyyyyt=ii000wqqqqoqoqqqqqqqqwOrrtyyytyytt",
"yyyysyyyyyttt;iwwwwqqqqoqqqoqqqqqqqwO9rtyyytytyt",
"yyyyyyyyyytt=siwwwqqqqoqqqqqoqqqqqwwi#rttttyyttt",
"ysyyyyyyyyyt%iwwwqqqqqoqqqqqoqqqqqqw0@rrtttytytt",
"yyyyyyyyyyytOiwqqqqqqo       oqqqqqw00*tttyyyyyt",
"yyytsyyytrrO00qqqqqqq >,,,,,> qqqqqww0%ttyyyyyyt",
"yyysyyyytr9.qqqqqqqq ,,,,,,,,, qqqqqw0i;tyyyyyyt",
"ysyyyyyytrr.wqqqqqq >,,, ,,  ,> qqqw0ee-tttyyttt",
"yyyyyyyytr@0wqqqqqq ,,,  , ,, , qqqww0i-ttyttyyt",
"yyyyyyyytr+wwqqqqqq ,,,, , ,, , qqqqw0e=ttyyyyyy",
"yyysyyyytt%wwqqqqqq ,  , ,,  ,, qqqqw0ia4yyytyyt",
"yyyyyyyytt&0wwqqqqq ,,,, , ,, , qqqwqwia4yyyyyyy",
"syyyyyyyyr*0wwwqqqq ,,,, , ,, , qqqqw0ii1ttttytt",
"yyyyyyyyy6ui0qqqqqq >,,   ,  ,> qqqqw00a1tttyyyt",
"yyyysyyyy8pu0wqqqqqq ,,,,,,,,, qqqqqww0i1tyyyyyt",
"yyyyyyyyt6pi0wwqqqqqq >,,,,,> qqqqqqqw0i;tyyytyy",
"ysyyyyyyy6pi0wwqqqqqqq       qqqqqqqqw0i;tytyyyy",
"ysyyyyyyy8siwqqqqqqqqqqqqqqqqqqqqqqqqeei=ttyyyyy",
"yyyyyyyyy8saeqqqqqqqqqqqqqqqqqqqqqqqqw0i-ttyyyyt",
"yyyyyyyyy8piwwqqqqqqqqqqqqqqqqqqq<<<qwe0=ttyyyyt",
"yyyysyyyy7aiewqqqqqqqqqqqqqqqqqqq<<<qq0i*ryyyyyy",
"yyyyyyyyywaiewqqqqqqqqqqqqqqqqqqq<<<qqee:ytyyyyt",
"yyyyyyyyy7ai0wwqqqqqqqqqqqqqqqqqqqqqqqee=ytyyyyt",
"yyyyysyyy6ai0wqqqqqqqqqqqqqqqqqqqqqqqeee*ttyyyyy",
"yyyyyyyyy7ae0wqqqqqqqqqqqqqqqqqqqqqqqqqe&ytyyyyy",
"yyyyyyyyy5s00wqqqqqqqqqqqqqqqqqqqqqqqqqq&rttyyyy",
"yysyyyyyt6pi0qqqqqqqqqqqqqqqqqqqqqqqqqqq%ttyyyyy",
"yyyyyyyyy5u0wwqqqqqqqqqqqqqqqqqqqqqqqqqq%rtyyyyy",
"yyyyyyyyy4a0wwqqqqqqqqqqqqqqqqqqqqqqqqqq%rtttyyy",
"yyyyyyyyt4i00wqqqqqqqqqqqqqqqqqqqqqqqqw0%tttyyyy",
"yyyyyyyyt3uiwwqqqqqqqqqqqqqqqqqqqqqqqqww%rttyyyy",
"yyyyysyyy3p0wqqqqqqqqqqqqqqqqqqqqqqqqqw0%ttyyyyy",
"yyyyyyyyt3i0wqqqqqqqqqqqqqqqqqqqqqqqqqwp%rttyyyy",
"yyyyyyyyt2u0wqqqqqqqqqqqqqqqqqqqqqqqqwwi=ttyyyyt",
"yyyyyyyyt1i0wqqqqqqqqqqqqqqqqqqqqqqqqqw0*rtyyyyt",
"syyyyyyyt1i0wqqqqqqqqqqqqqqqqqqqqqqqqq0i&rtyyyyt",
"yyyyyyyyt1u0wqqqqqqqqqqqqqqqqqqqqqqqqwwi&ryyyyyt"
};
