/* XPM */
static char *rosse[] = {
/* columns rows colors chars-per-pixel */
"48 48 121 2 ",
"   c #010001",
".  c #050804",
"X  c #080408",
"o  c #0D0B0C",
"O  c #130D13",
"+  c #1B141A",
"@  c #231623",
"#  c #241924",
"$  c #2D1C2D",
"%  c #2D202D",
"&  c #332433",
"*  c #392739",
"=  c #3D2B3D",
"-  c #2A591E",
";  c #2C5920",
":  c #315B26",
">  c #355D2A",
",  c #395E2F",
"<  c #3F5F34",
"1  c #3E6033",
"2  c #445A3B",
"3  c #426137",
"4  c #44613A",
"5  c #432E43",
"6  c #482F48",
"7  c #453145",
"8  c #4B344B",
"9  c #513751",
"0  c #543B54",
"q  c #5B3E5B",
"w  c #485940",
"e  c #5E415E",
"r  c #585F51",
"t  c #4F6645",
"y  c #57694F",
"u  c #5E6B55",
"i  c #666F5F",
"p  c #634463",
"a  c #684668",
"s  c #6D4B6D",
"d  c #734E73",
"f  c #745174",
"g  c #785277",
"h  c #7B557B",
"j  c #7D587D",
"k  c #686F61",
"l  c #6F7268",
"z  c #74726D",
"x  c #7F6D7B",
"c  c #7A7473",
"v  c #8A2727",
"b  c #8B292A",
"n  c #AF2C2D",
"m  c #B5292A",
"M  c #BD2F2F",
"N  c #B72E32",
"B  c #BD2F30",
"V  c #B63135",
"C  c #BD3133",
"Z  c #B53439",
"A  c #BD353A",
"S  c #BE383D",
"D  c #C0373F",
"F  c #BD3A42",
"G  c #BB3D49",
"H  c #C03B44",
"J  c #C23F49",
"K  c #BD414D",
"L  c #B84455",
"P  c #BD4F64",
"I  c #BF5068",
"U  c #816F7D",
"Y  c #83787C",
"T  c #C1414D",
"R  c #C34553",
"E  c #C64758",
"W  c #C44A5B",
"Q  c #C54E62",
"!  c #C34C6C",
"~  c #C55165",
"^  c #C6536A",
"/  c #C8546D",
"(  c #C95672",
")  c #CA5974",
"_  c #C45A78",
"`  c #CA5C79",
"'  c #845B84",
"]  c #8A5F8A",
"[  c #8E618E",
"{  c #8D7B88",
"}  c #92758E",
"|  c #946694",
" . c #986698",
".. c #9C6B9C",
"X. c #9F709E",
"o. c #AB77AB",
"O. c #BF7BBF",
"+. c #CB5F80",
"@. c #CC6183",
"#. c #CC6195",
"$. c #CF6B9A",
"%. c #D57DBB",
"&. c #CD6FCD",
"*. c #C37CC3",
"=. c #CD76CD",
"-. c #C87CC8",
";. c #DC7DDC",
":. c #A583A2",
">. c #AE84AB",
",. c #C681C6",
"<. c #CA84CA",
"1. c #CE89CE",
"2. c #CD90CC",
"3. c #D285D2",
"4. c #D28CD2",
"5. c #DC84DC",
"6. c #DC8DDC",
"7. c #D592D5",
"8. c #DC94DC",
"9. c #DC98DC",
"0. c #E096E0",
/* pixels */
"5.8.8.8.8.8.8.8.8.8.8.8.8.6.6.6.8.8.6.6.6.6.8.6.8.8.8.8.6.8.8.8.8.8.8.8.8.8.9.0.9.8.8.8.6.5.6.3.",
"5.8.8.9.8.8.9.8.9.9.8.8.8.8.8.6.8.6.8.6.8.6.8.6.6.8.8.8.8.6.8.8.8.6.8.8.9.9.8.9.9.8.8.8.7.6.6.6.",
"8.8.8.8.9.9.9.9.9.9.9.8.8.8.8.8.8.8.6.7.0.8.0.6.6.8.6.6.6.6.6.6.6.8.7.8.8.9.8.8.8.9.8.8.8.8.8.6.",
"6.8.8.8.9.8.9.8.8.8.8.8.6.6.6.8.8.6.6.6.8.6.6.6.6.6.6.6.6.5.6.6.6.6.8.8.8.8.8.8.8.9.8.8.8.8.8.8.",
"8.0.8.9.0.8.8.9.8.8.6.8.6.6.6.6.6.6.5.6.' ' ' d s s a p q e q p 5.6.6.6.6.8.8.8.9.8.9.0.8.8.8.6.",
"8.8.9.8.9.8.8.8.8.6.5.6.5.5.5.5.5.p p q q ` ` ( / ^ ~ Q Q W Q 8 9 5.6.6.6.8.6.8.8.9.9.9.9.8.8.8.",
"8.9.8.9.9.8.8.8.8.6.5.5.5.5.5.6 6 Q Q Q Q Q W W E R R T R J T R W 7 e 5.5.8.8.8.8.9.9.8.9.8.8.8.",
"8.9.8.9.9.8.8.8.6.5.5.5.5.;.% $ R R R T R T T T J H H D H H S F K T = 8 5.6.0.7.9.8.8.8.8.8.8.7.",
"9.9.9.8.8.8.8.8.5.5.5.5.;.;.+ F H H H H D H H F D V m m m m D M S H R = 5.5.6.8.9.7.8.8.8.8.8.7.",
"8.0.0.8.8.8.8.6.5.5.;.@ O O o A C C D A C A C C N m D D D m m M C D H % 7 5.5.6.8.8.8.8.8.9.8.8.",
"9.8.9.9.8.8.8.5.p 5 # O C C X C C C C C C C m m C B B m M M m M C C D T & 0 6.8.6.8.8.8.9.8.8.8.",
"9.8.9.9.9.8.7.' q W H A b   M M M M M C M M m M B B M D M M m m M C C D K = 5.5.6.8.8.9.8.9.9.8.",
"8.0.9.8.8.8.6.j / R H A b   M M M M M M m m M M M M M v v v M m M M M D T ) 0 6.6.8.8.8.8.8.8.8.",
"8.8.9.8.8.8.| d / R H C b b   M M M m m M M M M v v v v M v v m m M C C G E 9 5.6.8.8.8.8.8.9.9.",
"9.8.8.8.8.6.[ @.~ T H C C v   M m m m M M M v v v         M v M m M M D H R 7 5.5.8.8.8.0.8.8.8.",
"8.9.8.8.8.6.' ` ~ K A C M v   m m M M M M v M       M M     M v m M M D D J = 5.6.5.0.8.8.9.9.9.",
"8.8.9.9.8.8.h ) W F A C M v   m M m M M v v     M M M M M     v m M M C S H * 5.5.6.8.7.8.9.9.8.",
"8.8.8.8.8...f ( W F A C M v   m M m M v v     M M M M M M M   v v m M C C T * 5.6.8.7.9.8.9.0.9.",
"8.8.0.6.6.[ @.( R F A C v M   m m M m v M   M v v v M M M M   M v m M C S H = 5.6.8.8.8.8.9.9.9.",
"8.8.6.8.6.' @./ L F N C v v     m M m v     M v   v v M M M M   v m M C A T = 5.6.6.8.8.9.0.8.8.",
"6.8.6.8.o.[ @./ E H V B M v B   M M m v   M M v v   v v M M M   v m M C S T 5 6.6.6.8.8.9.8.9.9.",
"6.6.8.8.7.[ ` / E G V C M v M   M M m v   M M M v     v M M M   v M m C S K 7 5.5.6.9.8.9.9.9.8.",
"6.6.8.6.8.[ $./ E J Z D B v v   M M M v M   M v v     v M M M   v M m C S R 8 5.6.6.8.8.8.9.9.9.",
"6.6.6.6.6.5.d ) Q T Z C B M v   M M M M v           v v M M M   v M N C T R 9 5.8.8.8.8.8.9.8.9.",
"6.6.6.6.6.| h ` ~ W J N B B b v   D m D v v v v v v v M M     v v B M D J Q e 6.6.8.9.7.8.9.8.8.",
"6.6.6.8.8.6.| d ( W F Z C B B b v X m D M M M M M M M M     M v M C m F J ^ a 5.8.8.9.8.8.0.9.9.",
"6.6.6.8.8.8...h ` Q J A A B B B v       m M D m M M       M v M M C N H E ( d 6.6.8.8.8.9.9.8.8.",
"5.6.8.6.8.6.8.[ d ( Q J Z B B B v v D     X X X     M M v v M M M C N G E ) h 8.9.8.8.9.9.9.8.9.",
"6.6.6.6.8.8.0.6.' e ! E M D M M D v v v v v v v D v v v v M M M B N Z T Q e ' 0.8.8.9.8.0.9.9.9.",
"6.6.8.8.8.8.8.6.[ a ! Q A D D M D m D m M M M v v v D M M M M m m N H E I s 5.6.6.8.8.8.8.9.8.8.",
"5.6.8.8.8.8.8.8.6.U p / R H D m m m m M M M m D m m M M m m m C C S J W q g 6.0.8.9.8.8.8.8.8.9.",
"6.6.6.8.8.8.8.0.6.| U _ ~ T D D D m m m m m m m m m m m M M M C A F R ~ p %.6.8.8.9.7.9.0.8.9.9.",
"6.6.8.8.8.8.8.8.8.6...g ) Q G H C B B B D M M M M M M M M C C C S H E ^ s 6.8.8.9.9.0.9.9.8.8.8.",
"6.6.6.6.6.8.8.8.8.8.0. .+.I R H S C B B M M M M M M M M M C C S G R P e j 5.6.8.8.8.8.8.8.8.8.9.",
"6.6.6.8.8.8.8.8.8.9.8.6.f 0 W T S C M M M M M M M M M M V C S S K Q e g 6.6.8.6.8.7.8.8.8.8.8.8.",
"6.6.6.8.8.8.8.8.8.8.8.6.' p 8 L J D C D M M M m n n n n n V Z @ 6 e h 6.6.8.6.8.8.8.8.7.8.8.8.0.",
"6.6.8.8.8.6.8.8.8.0.8.8.6.f e 7 #.! S Z V V V .     X X X o @ & 5.5.6.6.8.8.0.8.8.8.8.9.8.8.8.8.",
"6.6.8.8.8.6.6.8.6.8.6.5.6.[ d q 5 & & $ # o . . -   &.=.o + =.5.5.5.6.8.9.8.8.8.8.8.9.8.9.8.8.7.",
"6.6.6.6.8.6.8.6.8.8.8.8.8.8.' d e 9 ;.;.;.+ > ; -   X o , 4 & 5.5.6.6.8.8.8.8.8.8.8.9.8.7.8.8.8.",
"6.8.8.6.8.6.6.8.8.0.9.8.8.6.6.6.6.5.5.5.;.# 1 , : o o , 4 t u 0 5.8.8.8.9.8.8.8.9.7.8.6.9.8.8.0.",
"6.6.8.8.8.6.6.8.8.8.8.8.8.6.6.6.6.5.6.5.5.& 4 1 , , < 3 2 r k g 5.6.6.8.8.8.8.8.8.8.8.6.7.8.8.8.",
"0.8.8.8.8.0.6.6.7.6.6.8.8.8.8.8.6.6.6.5.5.5 t 4 3 3 2 w = q s 6.6.6.8.8.8.9.8.8.9.7.8.8.7.8.9.8.",
"0.6.6.8.8.6.6.6.6.7.8.8.8.6.0.8.8.0.9.5.-.8 y t t 2 & q a ;.6.6.8.6.8.8.8.9.8.9.9.9.0.8.6.8.8.6.",
"8.0.8.8.8.6.6.6.6.8.8.8.8.8.8.8.9.9.8.6.s e u y u 7 6 5.5.5.5.8.8.8.8.0.8.8.9.8.8.8.8.8.8.8.6.8.",
"8.9.8.6.8.6.6.6.6.8.8.8.9.8.8.8.8.8.6.3.g z k k i l 0 -.5.6.0.0.6.6.8.8.8.8.8.8.8.8.8.7.6.6.6.8.",
"8.8.9.8.6.6.5.8.7.6.8.8.8.8.8.8.8.8.6.] f z z z c { g ' 3.6.6.6.8.6.6.8.8.8.8.8.8.7.8.9.8.6.6.6.",
"6.8.8.8.8.6.6.6.6.6.6.8.8.6.6.6.6.6.5.h Y c z Y { :.>.X.] 5.6.6.6.6.6.8.8.9.0.8.9.8.8.8.6.6.6.6.",
"<.4.4.4.<.<.,.<.<.<.<.<.<.,.,.,.,.O.*.f x x x { } >.2.>.' O.*.O.,.,.1.7.9.7.7.7.9.7.4.1.<.,.,.,."
};
