/* XPM */
static char *sol[] = {
/* columns rows colors chars-per-pixel */
"48 48 27 1 ",
"  c #ECC567",
". c #ECC36E",
"X c #EBC174",
"o c #EBC27A",
"O c #DE79DE",
"+ c #E6BE8B",
"@ c #E5BC93",
"# c #E2BA9B",
"$ c #DFB7AB",
"% c #DCB4B5",
"& c #DBB3BB",
"* c #E1B7A3",
"= c #E0B6AF",
"- c #DE82DE",
"; c #DE8ADE",
": c #DE94DE",
"> c #DE9CDE",
", c #D6AFCD",
"< c #D4B0C7",
"1 c #D6B1CB",
"2 c #D4ADD4",
"3 c #D8ADD6",
"4 c #DDA4DD",
"5 c #DAAADA",
"6 c #D5B0D3",
"7 c #E098E0",
"8 c #E0A4E0",
/* pixels */
"OOOOOOOO;:>4844444532222225545884484444>:-OOOOOO",
"OOOOOOOO;:>4>4444452222222255448484>484>:-OOOOOO",
"OOOOOOOO;7>4444445555222222554444>4>447:;OOOOOOO",
"OOOOOOOOO:>4444445536666222255584484>>:;OOOOOOOO",
"OOOOOOOOO;>44444455322222225544484444>;-OOOOOOOO",
"OOOOOOOOO-:>8>4444533266222255458444>;OOOOOOOOOO",
"OOOOOOOOOO;7>444445532552222554444>4>;OOOOOOOOOO",
"OOOOOOOOOOO:>444455323662222255444847-OOOOOOOOOO",
"OOOOOOOOOOO;>4>8445552222222255>8>4>7-OOOOOOOOOO",
"OOOOOOOOOOOO:>844445222222222555444>:-OOOOOOOOOO",
"OOOOOOOOOO-;>44444555222222255>5448>;OOOOOOOOOOO",
"OOOOOOOO-;::78>44445522222225555444>;-OOOOOOOOOO",
"OOOOOO-;::>>444444552222222225554448:;-OOOOOOOOO",
"OOOO;;:>>444444848852222222225554444>:;-OOOOOO-O",
"O:;:>>>74>44488484552222222222555444>>>;--O-;;;-",
">>444444444484445552222222222252554444>>::;:::::",
"44444444444444545555226622222222254454444>8>>>>>",
"544444545544242255226222222222222245454485444>44",
"5454555552425522222262622222<22222225545544544>4",
"555525522525222222226626<<<222222222525555545554",
"5252222222222662222262<<&&&<<2262222222255225555",
"2222222222222262222266<&$$$%<6622222222222222255",
"2222222222222222222266<$@o+*&<222222222222222222",
"2222222222222222222266&#o X#&<262222222222222222",
"2222226222222222226621%#X .@%<662222222222222222",
"222222266622222222226<&@X  @%<662222222222222222",
"22222222222222223323,<<=+o+#&6662222222222222222",
"2222222225232255553262<%*#$%<<222222222222222225",
"522222525355555555322,,<&&&<<2622222525222222522",
"555525554555445455532,2,,<<<66262522225522225545",
"458585854544455445332226622222222225455554555454",
"445585884444444444532,2226222<6222545444455>4444",
"4444444484484>4445552222222222225554445444448448",
"444484444>>444444455522222222222254444484444444>",
">44448>8>>>>8>4485585222222222225554444444444844",
"48844>>>:::::>>885855522222222255548>44484>8>4>>",
">>>>>:;-O-OOO;:>8545555222222225444848>>>>>>7777",
":>::;-OOOOOOOO:>888855526622225544484>77:;----;-",
";;--OOOOOOOOOO:>85585556622222255444>;;;O-OOOOOO",
"OOOOOOOOOOOOOO:>888855522622222244447;OOOOOOOOOO",
"OOOOOOOOOOOOO-:>44445552222222254444>;OOOOOOOOOO",
"OOOOOOOOOOOOOO>8448455222222225544444:-OOOOOOOOO",
"OOOOOOOOOOOOO;>>8444552222222255455>>:;OOOOOOOOO",
"OOOOOOOOOOOO-:>4844845222222222544444>;OOOOOOOOO",
"OOOOOOOOOOOO:>44444422222222252844444>:OOOOOOOOO",
"OOOOOOOOOOO;:4>444485222222255854444447;OOOOOOOO",
"OOOOOOOOOO-:>>484>4452222222254>84444>>:OOOOOOOO",
"OOOOOOOOOO-:>444444455222622244:884444>;OOOOOOOO"
};
